<svg version="1.1" xmlns="http://www.w3.org/2000/svg" xmlns:xlink="http://www.w3.org/1999/xlink" width="149.75" height="54.5" viewBox="0,0,149.75,54.5"><g transform="translate(-169.90455,-153.93205)"><g data-paper-data="{&quot;isPaintingLayer&quot;:true}" fill-rule="nonzero" stroke-linecap="butt" stroke-linejoin="miter" stroke-miterlimit="10" stroke-dasharray="" stroke-dashoffset="0" style="mix-blend-mode: normal"><path d="M271.9244,166.6993h6.4106v2.0765h-3.3403v2.7985h3.3403v2.3484h-3.3403v2.7976h3.3403v4.0622h-6.4106v-14.0832" fill="#810000" stroke="none" stroke-width="0.85737"/><path d="M218.1824,186.7593c2.164,0 3.9182,-1.7542 3.9182,-3.9182c0,-2.1623 -1.7542,-3.9165 -3.9182,-3.9165c-2.164,0 -3.9182,1.7542 -3.9182,3.9165c0,2.164 1.7542,3.9182 3.9182,3.9182zM205.904,186.7593c2.164,0 3.9182,-1.7542 3.9182,-3.9182c0,-2.1623 -1.7542,-3.9165 -3.9182,-3.9165c-2.1641,0 -3.9182,1.7542 -3.9182,3.9165c0,2.164 1.7541,3.9182 3.9182,3.9182zM224.5724,191.7295c0,-1.0177 -0.2297,-1.9806 -0.6396,-2.8396c-1.5021,1.4626 -3.5555,2.3655 -5.8207,2.3655c-2.3698,0 -4.5081,-0.9869 -6.0256,-2.5722c-0.4741,0.9114 -0.7425,1.9471 -0.7425,3.0489c0,3.6532 2.9614,6.6129 6.6138,6.6129c3.6541,-0.0017 6.6146,-2.9622 6.6146,-6.6155zM224.0306,177.0246c0.3489,-0.805 0.5427,-1.6941 0.5427,-2.6278c0,-3.6533 -2.9614,-6.6147 -6.6138,-6.6147c-3.6524,0 -6.6138,2.9614 -6.6138,6.6147c0,1.0923 0.2641,2.1203 0.6293,2.8593c1.5244,-1.6547 3.7099,-2.693 6.1388,-2.693c2.3124,0 4.4061,0.9414 5.9168,2.4615zM226.1337,179.8583c0.5162,1.647 0.6971,4.4009 0,6.2459l3.2238,-3.0899zM208.1794,174.3282c0,-5.4392 4.4095,-9.8487 9.8487,-9.8487c5.4392,0 9.8487,4.4095 9.8487,9.8487c0,1.9265 3.829,6.7252 5.7247,8.9827c-1.9866,1.6256 -5.7247,6.4115 -5.7247,8.3508c0,5.4392 -4.4095,9.8479 -9.8487,9.8479c-5.4392,0 -9.8487,-4.4104 -9.8487,-9.8479c0,-0.6644 0.066,-1.3143 0.1921,-1.9436c-0.7708,0.2761 -1.6016,0.427 -2.4667,0.427c-4.0356,0 -7.3057,-3.2692 -7.3057,-7.3057c0,-4.0348 3.2701,-7.3057 7.3057,-7.3057c0.8428,0 1.653,0.1431 2.4075,0.4055c-0.0874,-0.5221 -0.1329,-1.0614 -0.1329,-1.611z" fill="#810000" stroke="none" stroke-width="0.85737"/><path d="M229.7647,179.3841h48.5703v7.4026h-48.5703z" fill="#ffea00" stroke="none" stroke-width="0.85737"/><path d="M230.3066,179.5642c0,-0.6971 0.5255,-1.2638 1.1737,-1.2638v0c0.6482,0 1.1738,0.5659 1.1738,1.2638v7.0425c0,0.6979 -0.5256,1.2646 -1.1738,1.2646v0c-0.6482,0 -1.1737,-0.5659 -1.1737,-1.2646v-7.0425z" fill="#ffea00" stroke="none" stroke-width="0.85737"/><path d="M232.9241,179.5642c0,-0.6971 0.5256,-1.2638 1.1738,-1.2638v0c0.6482,0 1.1737,0.5659 1.1737,1.2638v7.0425c0,0.6979 -0.5255,1.2646 -1.1737,1.2646v0c-0.6482,0 -1.1738,-0.5659 -1.1738,-1.2646v-7.0425z" fill="#ffea00" stroke="none" stroke-width="0.85737"/><path d="M263.4853,171.0779h3.7004v8.6672h-3.7004v-8.6672" fill="#810000" stroke="none" stroke-width="0.85737"/><path d="M172.40455,205.93205v-49.5h144.75v49.5z" fill="none" stroke="#000000" stroke-width="5"/><text transform="translate(176.29527,188.07458) scale(0.5,0.5)" font-size="40" xml:space="preserve" fill="#000000" fill-rule="nonzero" stroke="none" stroke-width="1" stroke-linecap="butt" stroke-linejoin="miter" stroke-miterlimit="10" stroke-dasharray="" stroke-dashoffset="0" font-family="Sans Serif" font-weight="normal" text-anchor="start" style="mix-blend-mode: normal"><tspan x="0" dy="0">10</tspan></text><text transform="translate(280.70579,186.78906) scale(0.5,0.5)" font-size="40" xml:space="preserve" fill="#000000" fill-rule="nonzero" stroke="none" stroke-width="1" stroke-linecap="butt" stroke-linejoin="miter" stroke-miterlimit="10" stroke-dasharray="" stroke-dashoffset="0" font-family="Sans Serif" font-weight="normal" text-anchor="start" style="mix-blend-mode: normal"><tspan x="0" dy="0">10х</tspan></text></g></g></svg>