<svg version="1.1" xmlns="http://www.w3.org/2000/svg" xmlns:xlink="http://www.w3.org/1999/xlink" width="98.22656" height="94.03387" viewBox="0,0,98.22656,94.03387"><g transform="translate(-53.69753,-166.44103)"><g data-paper-data="{&quot;isPaintingLayer&quot;:true}" fill-rule="nonzero" stroke-linejoin="miter" stroke-miterlimit="10" stroke-dasharray="" stroke-dashoffset="0" style="mix-blend-mode: normal"><path d="M55.78138,259.2249v-83.12134h91.01464v83.12134z" fill="#ffea00" stroke="#000000" stroke-width="2.5" stroke-linecap="butt"/><path d="M67.94979,247.9226v-61h66v61z" fill="#ffffff" stroke="#000000" stroke-width="2.5" stroke-linecap="butt"/><path d="M102.5,243.50001c-15.18783,0 -27.5,-11.75253 -27.5,-26.25c0,-14.49747 12.31217,-26.25 27.5,-26.25c15.18783,0 27.5,11.75253 27.5,26.25c0,14.49747 -12.31217,26.25 -27.5,26.25z" fill="#001aff" stroke="#000000" stroke-width="2" stroke-linecap="butt"/><path d="M81.5,201.50001l11,14" fill="none" stroke="#000000" stroke-width="2" stroke-linecap="round"/><path d="M108.5,215.50001l16,-13" fill="none" stroke="#000000" stroke-width="2" stroke-linecap="round"/><path d="M82,212.50001c0,-1.38071 1.11929,-2.5 2.5,-2.5c1.38071,0 2.5,1.11929 2.5,2.5c0,1.38071 -1.11929,2.5 -2.5,2.5c-1.38071,0 -2.5,-1.11929 -2.5,-2.5z" fill="#ffffff" stroke="none" stroke-width="0.5" stroke-linecap="butt"/><path d="M116,213.50001c0,-1.38071 1.11929,-2.5 2.5,-2.5c1.38071,0 2.5,1.11929 2.5,2.5c0,1.38071 -1.11929,2.5 -2.5,2.5c-1.38071,0 -2.5,-1.11929 -2.5,-2.5z" fill="#ffffff" stroke="none" stroke-width="0.5" stroke-linecap="butt"/><path d="M115.5,228.50001l-14,6l-13,-5" fill="none" stroke="#000000" stroke-width="2" stroke-linecap="round"/><text transform="translate(53.94753,188.19103) scale(0.5,0.5)" font-size="40" xml:space="preserve" fill="#e100ff" fill-rule="nonzero" stroke="none" stroke-width="1" stroke-linecap="butt" stroke-linejoin="miter" stroke-miterlimit="10" stroke-dasharray="" stroke-dashoffset="0" font-family="Sans Serif" font-weight="normal" text-anchor="start" style="mix-blend-mode: normal"><tspan x="0" dy="0">BIRTHDAY</tspan></text><path d="M61.07716,257.82374l0.23766,-64.16666" fill="none" stroke="#e100ff" stroke-width="1.5" stroke-linecap="round"/><path d="M57.03704,192.94412l8.79321,0.23765" fill="none" stroke="#e100ff" stroke-width="1.5" stroke-linecap="round"/><path d="M134.98765,193.65708h9.98148" fill="none" stroke="#e100ff" stroke-width="1.5" stroke-linecap="round"/><path d="M57.03704,252.83301l87.9321,-0.23765" fill="none" stroke="#e100ff" stroke-width="1.5" stroke-linecap="round"/><path d="M66.30556,257.82375l5.7037,-4.04012l4.51543,4.99074l5.46605,-5.2284l3.56481,4.99074l4.75309,-4.75309l3.32716,4.27778l7.12963,-4.27778l4.99074,4.51543l5.7037,-4.99074l3.32716,4.51543l4.27778,-4.27778l3.56481,4.75309l6.65432,-4.75309l2.85185,5.2284l4.51543,-5.46605l3.80247,4.27778l-0.23765,-63.4537" fill="none" stroke="#e100ff" stroke-width="1.5" stroke-linecap="round"/></g></g></svg>