<svg version="1.1" xmlns="http://www.w3.org/2000/svg" xmlns:xlink="http://www.w3.org/1999/xlink" width="69.77929" height="65.51151" viewBox="0,0,69.77929,65.51151"><defs><radialGradient cx="237.95712" cy="177.69352" r="33" gradientUnits="userSpaceOnUse" id="color-1"><stop offset="0" stop-color="#ffffff"/><stop offset="1" stop-color="#000dff"/></radialGradient><radialGradient cx="228.20398" cy="168.99477" r="6.85356" gradientUnits="userSpaceOnUse" id="color-2"><stop offset="0" stop-color="#ffffff"/><stop offset="1" stop-color="#000dff"/></radialGradient><radialGradient cx="251.07113" cy="169.58787" r="7.57845" gradientUnits="userSpaceOnUse" id="color-3"><stop offset="0" stop-color="#ffffff"/><stop offset="1" stop-color="#000dff"/></radialGradient><radialGradient cx="239.6705" cy="194.95921" r="16.0795" gradientUnits="userSpaceOnUse" id="color-4"><stop offset="0" stop-color="#ffffff"/><stop offset="1" stop-color="#000dff"/></radialGradient><radialGradient cx="235.84833" cy="172.94874" r="8.56695" gradientUnits="userSpaceOnUse" id="color-5"><stop offset="0" stop-color="#ffffff"/><stop offset="1" stop-color="#ff0000"/></radialGradient><radialGradient cx="241.64749" cy="173.47594" r="8.43515" gradientUnits="userSpaceOnUse" id="color-6"><stop offset="0" stop-color="#ffffff"/><stop offset="1" stop-color="#ff0000"/></radialGradient></defs><g transform="translate(-204.22071,-147.5)"><g data-paper-data="{&quot;isPaintingLayer&quot;:true}" fill-rule="nonzero" stroke-linejoin="miter" stroke-miterlimit="10" stroke-dasharray="" stroke-dashoffset="0" style="mix-blend-mode: normal"><path d="M240,211.5c-18.22539,0 -33,-14.10303 -33,-31.5c0,-17.39697 14.77461,-31.5 33,-31.5c18.22539,0 33,14.10303 33,31.5c0,17.39697 -14.77461,31.5 -33,31.5z" fill="url(#color-1)" stroke="#000000" stroke-width="2" stroke-linecap="butt"/><path d="M235.05755,168.99477c0,3.49395 -3.06845,6.32636 -6.85356,6.32636c-3.78512,0 -6.85356,-2.83241 -6.85356,-6.32636c0,-3.49395 3.06844,-6.32636 6.85355,-6.32636c3.78511,0 6.85355,2.83241 6.85355,6.32636z" fill="url(#color-2)" stroke="#000000" stroke-width="2" stroke-linecap="butt"/><path d="M251.07113,176.50732c-4.18546,0 -7.57845,-3.09794 -7.57845,-6.91945c0,-3.8215 3.39299,-6.91945 7.57845,-6.91945c4.18546,0 7.57845,3.09794 7.57845,6.91945c0,3.8215 -3.39299,6.91945 -7.57845,6.91945z" fill="url(#color-3)" stroke="#000000" stroke-width="2" stroke-linecap="butt"/><path d="M223.59101,199.17678v-8.43515h32.159v8.43515z" fill="url(#color-4)" stroke="#000000" stroke-width="2" stroke-linecap="butt"/><path d="M240,211.5c-18.22539,0 -33,-14.10303 -33,-31.5c0,-17.39697 14.77461,-31.5 33,-31.5c18.22539,0 33,14.10303 33,31.5c0,17.39697 -14.77461,31.5 -33,31.5z" fill="#ff0000" stroke="#000000" stroke-width="2" stroke-linecap="butt"/><path d="M249.29184,152.51988l-42.57113,27.54602" fill="none" stroke="#000000" stroke-width="5" stroke-linecap="round"/><path d="M258.91318,157.52825l-47.5795,34.13598" fill="none" stroke="#000000" stroke-width="5" stroke-linecap="round"/><path d="M266.42573,164.909l-47.31589,38.35355" fill="none" stroke="#000000" stroke-width="5" stroke-linecap="round"/><path d="M271.17051,173.73954l-43.09833,34.53138" fill="none" stroke="#000000" stroke-width="5" stroke-linecap="round"/><path d="M246.65586,210.51151l-34.92678,-42.70293" fill="none" stroke="#000000" stroke-width="5" stroke-linecap="round"/><path d="M219.50523,156.60565l39.93515,47.5795" fill="none" stroke="#000000" stroke-width="5" stroke-linecap="round"/><path d="M268.66632,193.90481l-35.32218,-42.70292" fill="none" stroke="#000000" stroke-width="5" stroke-linecap="round"/><path d="M226.88598,180.3295c-4.7314,0 -8.56695,-3.51101 -8.56695,-7.84205c0,-4.33104 3.83556,-7.84205 8.56695,-7.84205c4.7314,0 8.56695,3.51101 8.56695,7.84205c0,4.33104 -3.83556,7.84205 -8.56695,7.84205z" fill="#000000" stroke="url(#color-5)" stroke-width="5" stroke-linecap="butt"/><path d="M249.68724,180.0659c-4.65861,0 -8.43515,-3.24546 -8.43515,-7.24895c0,-4.00348 3.77655,-7.24895 8.43515,-7.24895c4.65861,0 8.43515,3.24546 8.43515,7.24895c0,4.00348 -3.77655,7.24895 -8.43515,7.24895z" fill="#ffffff" stroke="url(#color-6)" stroke-width="5" stroke-linecap="butt"/><path d="M222.53661,199.96758v-12.25733h34.39958v12.25733z" fill="#ffffff" stroke="#000000" stroke-width="5" stroke-linecap="butt"/></g></g></svg>