<svg version="1.1" xmlns="http://www.w3.org/2000/svg" xmlns:xlink="http://www.w3.org/1999/xlink" width="86.65691" height="82.2438" viewBox="0,0,86.65691,82.2438"><defs><linearGradient x1="58.84205" y1="217.41995" x2="140.70011" y2="217.41995" gradientUnits="userSpaceOnUse" id="color-1"><stop offset="0" stop-color="#ff0000"/><stop offset="1" stop-color="#ffe000"/></linearGradient><linearGradient x1="61.09728" y1="182.2249" x2="73.98431" y2="182.2249" gradientUnits="userSpaceOnUse" id="color-2"><stop offset="0" stop-color="#ff0000"/><stop offset="1" stop-color="#ffe000"/></linearGradient><linearGradient x1="75.1182" y1="182.87553" x2="88.00523" y2="182.87553" gradientUnits="userSpaceOnUse" id="color-3"><stop offset="0" stop-color="#ff0000"/><stop offset="1" stop-color="#ffe000"/></linearGradient><linearGradient x1="89.78347" y1="183.04289" x2="102.6705" y2="183.04289" gradientUnits="userSpaceOnUse" id="color-4"><stop offset="0" stop-color="#ff0000"/><stop offset="1" stop-color="#ffe000"/></linearGradient><linearGradient x1="103.64331" y1="182.5659" x2="116.53034" y2="182.5659" gradientUnits="userSpaceOnUse" id="color-5"><stop offset="0" stop-color="#ff0000"/><stop offset="1" stop-color="#ffe000"/></linearGradient><linearGradient x1="117.34205" y1="182.57218" x2="130.22908" y2="182.57218" gradientUnits="userSpaceOnUse" id="color-6"><stop offset="0" stop-color="#ff0000"/><stop offset="1" stop-color="#ffe000"/></linearGradient><linearGradient x1="129.59101" y1="182.73954" x2="142.47804" y2="182.73954" gradientUnits="userSpaceOnUse" id="color-7"><stop offset="0" stop-color="#ff0000"/><stop offset="1" stop-color="#ffe000"/></linearGradient><linearGradient x1="60.97385" y1="252.0136" x2="73.86088" y2="252.0136" gradientUnits="userSpaceOnUse" id="color-8"><stop offset="0" stop-color="#ff0000"/><stop offset="1" stop-color="#ffe000"/></linearGradient><linearGradient x1="75.15586" y1="252.9864" x2="88.04289" y2="252.9864" gradientUnits="userSpaceOnUse" id="color-9"><stop offset="0" stop-color="#ff0000"/><stop offset="1" stop-color="#ffe000"/></linearGradient><linearGradient x1="89.17678" y1="252.99268" x2="102.06381" y2="252.99268" gradientUnits="userSpaceOnUse" id="color-10"><stop offset="0" stop-color="#ff0000"/><stop offset="1" stop-color="#ffe000"/></linearGradient><linearGradient x1="103.35879" y1="253.32113" x2="116.24582" y2="253.32113" gradientUnits="userSpaceOnUse" id="color-11"><stop offset="0" stop-color="#ff0000"/><stop offset="1" stop-color="#ffe000"/></linearGradient><linearGradient x1="117.70189" y1="253.00523" x2="130.58891" y2="253.00523" gradientUnits="userSpaceOnUse" id="color-12"><stop offset="0" stop-color="#ff0000"/><stop offset="1" stop-color="#ffe000"/></linearGradient><linearGradient x1="130.11193" y1="253.01151" x2="142.99896" y2="253.01151" gradientUnits="userSpaceOnUse" id="color-13"><stop offset="0" stop-color="#ff0000"/><stop offset="1" stop-color="#ffe000"/></linearGradient></defs><g transform="translate(-57.59205,-176.45913)"><g data-paper-data="{&quot;isPaintingLayer&quot;:true}" fill-rule="nonzero" stroke-linejoin="miter" stroke-miterlimit="10" stroke-dasharray="" stroke-dashoffset="0" style="mix-blend-mode: normal"><path d="M58.84205,257.13076v-79.42163h81.85806v79.42163z" fill="url(#color-1)" stroke="#000000" stroke-width="2.5" stroke-linecap="butt"/><path d="M67.94979,247.92261v-61h66v61z" fill="#ffffff" stroke="#000000" stroke-width="2.5" stroke-linecap="butt"/><path d="M102.5,243.50002c-15.18783,0 -27.5,-11.75253 -27.5,-26.25c0,-14.49747 12.31217,-26.25 27.5,-26.25c15.18783,0 27.5,11.75253 27.5,26.25c0,14.49747 -12.31217,26.25 -27.5,26.25z" fill="#001aff" stroke="#000000" stroke-width="2" stroke-linecap="butt"/><path d="M81.5,201.50002l11,14" fill="none" stroke="#000000" stroke-width="2" stroke-linecap="round"/><path d="M108.5,215.50002l16,-13" fill="none" stroke="#000000" stroke-width="2" stroke-linecap="round"/><path d="M82,212.50002c0,-1.38071 1.11929,-2.5 2.5,-2.5c1.38071,0 2.5,1.11929 2.5,2.5c0,1.38071 -1.11929,2.5 -2.5,2.5c-1.38071,0 -2.5,-1.11929 -2.5,-2.5z" fill="#ffffff" stroke="none" stroke-width="0.5" stroke-linecap="butt"/><path d="M116,213.50002c0,-1.38071 1.11929,-2.5 2.5,-2.5c1.38071,0 2.5,1.11929 2.5,2.5c0,1.38071 -1.11929,2.5 -2.5,2.5c-1.38071,0 -2.5,-1.11929 -2.5,-2.5z" fill="#ffffff" stroke="none" stroke-width="0.5" stroke-linecap="butt"/><path d="M115.5,228.50002l-14,6l-13,-5" fill="none" stroke="#000000" stroke-width="2" stroke-linecap="round"/><path d="M73.98431,182.2249c0,-2.1352 -2.88486,-3.86611 -6.44351,-3.86611c-3.55866,0 -6.44352,1.73091 -6.44352,3.86611c0,2.1352 2.88486,3.86611 6.44352,3.86611c3.55866,0 6.44351,-1.73091 6.44351,-3.86611z" fill="url(#color-2)" stroke="#000000" stroke-width="2.5" stroke-linecap="butt"/><path d="M88.00523,182.87553c0,-2.1352 -2.88486,-3.86611 -6.44351,-3.86611c-3.55866,0 -6.44352,1.73092 -6.44352,3.86611c0,2.1352 2.88486,3.86611 6.44352,3.86611c3.55866,0 6.44351,-1.73091 6.44351,-3.86611z" fill="url(#color-3)" stroke="#000000" stroke-width="2.5" stroke-linecap="butt"/><path d="M102.6705,183.04289c0,-2.1352 -2.88486,-3.86611 -6.44352,-3.86611c-3.55866,0 -6.44352,1.73092 -6.44352,3.86611c0,2.1352 2.88486,3.86611 6.44352,3.86611c3.55866,0 6.44352,-1.73091 6.44352,-3.86611z" fill="url(#color-4)" stroke="#000000" stroke-width="2.5" stroke-linecap="butt"/><path d="M116.53034,182.5659c0,-2.1352 -2.88486,-3.86611 -6.44351,-3.86611c-3.55866,0 -6.44352,1.73091 -6.44352,3.86611c0,2.1352 2.88486,3.86611 6.44352,3.86611c3.55866,0 6.44351,-1.73091 6.44351,-3.86611z" fill="url(#color-5)" stroke="#000000" stroke-width="2.5" stroke-linecap="butt"/><path d="M130.22908,182.57218c0,-2.1352 -2.88486,-3.86611 -6.44352,-3.86611c-3.55866,0 -6.44352,1.73091 -6.44352,3.86611c0,2.1352 2.88486,3.86611 6.44352,3.86611c3.55866,0 6.44352,-1.73092 6.44352,-3.86611z" fill="url(#color-6)" stroke="#000000" stroke-width="2.5" stroke-linecap="butt"/><path d="M142.47804,182.73954c0,-2.1352 -2.88486,-3.86611 -6.44352,-3.86611c-3.55865,0 -6.44351,1.73091 -6.44351,3.86611c0,2.1352 2.88486,3.86611 6.44351,3.86611c3.55865,0 6.44352,-1.73091 6.44352,-3.86611z" fill="url(#color-7)" stroke="#000000" stroke-width="2.5" stroke-linecap="butt"/><path d="M73.86088,252.0136c0,-2.1352 -2.88486,-3.86611 -6.44351,-3.86611c-3.55866,0 -6.44352,1.73091 -6.44352,3.86611c0,2.1352 2.88486,3.86611 6.44352,3.86611c3.55866,0 6.44351,-1.73091 6.44351,-3.86611z" fill="url(#color-8)" stroke="#000000" stroke-width="2.5" stroke-linecap="butt"/><path d="M88.04289,252.9864c0,-2.1352 -2.88486,-3.86611 -6.44352,-3.86611c-3.55866,0 -6.44351,1.73091 -6.44351,3.86611c0,2.1352 2.88486,3.86611 6.44351,3.86611c3.55866,0 6.44352,-1.73091 6.44352,-3.86611z" fill="url(#color-9)" stroke="#000000" stroke-width="2.5" stroke-linecap="butt"/><path d="M102.06381,252.99268c0,-2.1352 -2.88486,-3.86611 -6.44352,-3.86611c-3.55866,0 -6.44352,1.73091 -6.44352,3.86611c0,2.1352 2.88486,3.86611 6.44352,3.86611c3.55866,0 6.44352,-1.73092 6.44352,-3.86611z" fill="url(#color-10)" stroke="#000000" stroke-width="2.5" stroke-linecap="butt"/><path d="M116.24582,253.32113c0,-2.1352 -2.88486,-3.86611 -6.44351,-3.86611c-3.55866,0 -6.44352,1.73092 -6.44352,3.86611c0,2.1352 2.88486,3.86611 6.44352,3.86611c3.55866,0 6.44351,-1.73091 6.44351,-3.86611z" fill="url(#color-11)" stroke="#000000" stroke-width="2.5" stroke-linecap="butt"/><path d="M130.58891,253.00523c0,-2.1352 -2.88486,-3.86611 -6.44351,-3.86611c-3.55866,0 -6.44351,1.73092 -6.44351,3.86611c0,2.1352 2.88486,3.86611 6.44351,3.86611c3.55866,0 6.44351,-1.73091 6.44351,-3.86611z" fill="url(#color-12)" stroke="#000000" stroke-width="2.5" stroke-linecap="butt"/><path d="M142.99896,253.01151c0,-2.1352 -2.88486,-3.86611 -6.44351,-3.86611c-3.55865,0 -6.44351,1.73091 -6.44351,3.86611c0,2.1352 2.88486,3.86611 6.44351,3.86611c3.55865,0 6.44351,-1.73091 6.44351,-3.86611z" fill="url(#color-13)" stroke="#000000" stroke-width="2.5" stroke-linecap="butt"/><path d="M66.89645,178.84205l0.16108,6.44351" fill="none" stroke="#000000" stroke-width="2.5" stroke-linecap="round"/><path d="M81.39435,179.96967l0.16109,5.15481" fill="none" stroke="#000000" stroke-width="2.5" stroke-linecap="round"/><path d="M96.53661,180.29184v5.47699" fill="none" stroke="#000000" stroke-width="2.5" stroke-linecap="round"/><path d="M110.55126,179.32532v6.92678" fill="none" stroke="#000000" stroke-width="2.5" stroke-linecap="round"/><path d="M123.43829,178.84205l0.16108,7.24895" fill="none" stroke="#000000" stroke-width="2.5" stroke-linecap="round"/><path d="M136.00314,179.64749v5.3159" fill="none" stroke="#000000" stroke-width="2.5" stroke-linecap="round"/><path d="M136.80857,249.8818l0.48327,7.08787" fill="none" stroke="#000000" stroke-width="2.5" stroke-linecap="round"/><path d="M123.76046,250.20398l0.64435,5.79916" fill="none" stroke="#000000" stroke-width="2.5" stroke-linecap="round"/><path d="M110.06799,249.72071l0.16109,5.79917" fill="none" stroke="#000000" stroke-width="2.5" stroke-linecap="round"/><path d="M95.89226,249.39854l0.16108,5.96025" fill="none" stroke="#000000" stroke-width="2.5" stroke-linecap="round"/><path d="M82.19979,250.36507l-0.16108,7.08786" fill="none" stroke="#000000" stroke-width="2.5" stroke-linecap="round"/><path d="M67.86297,249.39854l-0.64435,4.99372" fill="none" stroke="#000000" stroke-width="2.5" stroke-linecap="round"/></g></g></svg>