<svg version="1.1" xmlns="http://www.w3.org/2000/svg" xmlns:xlink="http://www.w3.org/1999/xlink" width="298" height="204" viewBox="0,0,298,204"><defs><radialGradient cx="139.95712" cy="160.69352" r="33" gradientUnits="userSpaceOnUse" id="color-1"><stop offset="0" stop-color="#ffffff"/><stop offset="1" stop-color="#000dff"/></radialGradient><radialGradient cx="130.20398" cy="151.99477" r="6.85356" gradientUnits="userSpaceOnUse" id="color-2"><stop offset="0" stop-color="#ffffff"/><stop offset="1" stop-color="#000dff"/></radialGradient><radialGradient cx="153.07113" cy="152.58787" r="7.57845" gradientUnits="userSpaceOnUse" id="color-3"><stop offset="0" stop-color="#ffffff"/><stop offset="1" stop-color="#000dff"/></radialGradient><radialGradient cx="141.6705" cy="177.95921" r="16.0795" gradientUnits="userSpaceOnUse" id="color-4"><stop offset="0" stop-color="#ffffff"/><stop offset="1" stop-color="#000dff"/></radialGradient></defs><g transform="translate(-81.5,-91.5)"><g data-paper-data="{&quot;isPaintingLayer&quot;:true}" fill-rule="nonzero" stroke="#000000" stroke-width="2" stroke-linecap="butt" stroke-linejoin="miter" stroke-miterlimit="10" stroke-dasharray="" stroke-dashoffset="0" style="mix-blend-mode: normal"><path d="M82.5,294.5v-202h296v202z" fill="#00bbff"/><path d="M99.5,201.5v-77h90v77z" fill="#ffffff"/><path d="M142,194.5c-18.22539,0 -33,-14.10303 -33,-31.5c0,-17.39697 14.77461,-31.5 33,-31.5c18.22539,0 33,14.10303 33,31.5c0,17.39697 -14.77461,31.5 -33,31.5z" fill="url(#color-1)"/><path d="M137.05755,151.99477c0,3.49395 -3.06845,6.32636 -6.85356,6.32636c-3.78512,0 -6.85356,-2.83241 -6.85356,-6.32636c0,-3.49395 3.06844,-6.32636 6.85355,-6.32636c3.78511,0 6.85355,2.83241 6.85355,6.32636z" fill="url(#color-2)"/><path d="M153.07113,159.50732c-4.18546,0 -7.57845,-3.09794 -7.57845,-6.91945c0,-3.8215 3.39299,-6.91945 7.57845,-6.91945c4.18546,0 7.57845,3.09794 7.57845,6.91945c0,3.8215 -3.39299,6.91945 -7.57845,6.91945z" fill="url(#color-3)"/><path d="M125.59101,182.17678v-8.43515h32.159v8.43515z" fill="url(#color-4)"/></g></g></svg>