<svg version="1.1" xmlns="http://www.w3.org/2000/svg" xmlns:xlink="http://www.w3.org/1999/xlink" width="73.3245" height="62" viewBox="0,0,73.3245,62"><defs><linearGradient x1="239.71292" y1="165.15126" x2="239.71292" y2="195.32773" gradientUnits="userSpaceOnUse" id="color-1"><stop offset="0" stop-color="#ff0000"/><stop offset="1" stop-color="#000000"/></linearGradient><linearGradient x1="253.37115" y1="159.71181" x2="253.37115" y2="173.42839" gradientUnits="userSpaceOnUse" id="color-2"><stop offset="0" stop-color="#ff0000"/><stop offset="1" stop-color="#000000"/></linearGradient><linearGradient x1="227.7383" y1="157.48286" x2="227.7383" y2="172.91401" gradientUnits="userSpaceOnUse" id="color-3"><stop offset="0" stop-color="#ff0000"/><stop offset="1" stop-color="#000000"/></linearGradient><linearGradient x1="233.95362" y1="168.71331" x2="233.95362" y2="174.54286" gradientUnits="userSpaceOnUse" id="color-4"><stop offset="0" stop-color="#ffffff"/><stop offset="1" stop-color="#000000"/></linearGradient><linearGradient x1="246.16995" y1="170.7708" x2="246.16995" y2="176.25743" gradientUnits="userSpaceOnUse" id="color-5"><stop offset="0" stop-color="#ffffff"/><stop offset="1" stop-color="#000000"/></linearGradient></defs><g transform="translate(-203.33775,-149)"><g data-paper-data="{&quot;isPaintingLayer&quot;:true}" fill-rule="nonzero" stroke="#000000" stroke-linejoin="miter" stroke-miterlimit="10" stroke-dasharray="" stroke-dashoffset="0" style="mix-blend-mode: normal"><path d="M274.16225,180c0,-15.74012 -15.29496,-28.5 -34.16225,-28.5c-18.86729,0 -34.16225,12.75988 -34.16225,28.5c0,15.74012 15.29496,28.5 34.16225,28.5c18.86729,0 34.16225,-12.75988 34.16225,-28.5z" fill="#ff0000" stroke-width="5" stroke-linecap="butt"/><path d="M239.71292,195.32773c-8.72981,0 -15.80672,-6.75523 -15.80672,-15.08824c0,-8.333 7.07691,-15.08824 15.80672,-15.08824c8.72981,0 15.80672,6.75523 15.80672,15.08824c0,8.333 -7.07691,15.08824 -15.80672,15.08824z" fill="url(#color-1)" stroke-width="2.5" stroke-linecap="butt"/><path d="M248.39889,167.85603l9.94452,-8.14422l-4.28643,13.71658z" fill="url(#color-2)" stroke-width="2.5" stroke-linecap="round"/><path d="M225.3379,172.91401l-0.68583,-15.43115l6.17246,10.37316l-4.8008,3.94352" fill="url(#color-3)" stroke-width="2.5" stroke-linecap="round"/><path d="M231.42463,169.91351l2.14321,-1.2002l3.6006,4.28643l-3.17196,1.54311l-3.25769,-4.54361" fill="url(#color-4)" stroke-width="2.5" stroke-linecap="round"/><path d="M242.74081,173.42838l4.62934,-2.65758l2.22894,2.31467l-4.97226,3.17196z" fill="url(#color-5)" stroke-width="2.5" stroke-linecap="round"/><path d="M232.11046,183.973l15.60261,2.14321" fill="none" stroke-width="2.5" stroke-linecap="round"/></g></g></svg>