<svg version="1.1" xmlns="http://www.w3.org/2000/svg" xmlns:xlink="http://www.w3.org/1999/xlink" width="84.5" height="58" viewBox="0,0,84.5,58"><g transform="translate(-210.5,-151)"><g data-paper-data="{&quot;isPaintingLayer&quot;:true}" fill-rule="nonzero" stroke="none" stroke-linecap="butt" stroke-linejoin="miter" stroke-miterlimit="10" stroke-dasharray="" stroke-dashoffset="0" style="mix-blend-mode: normal"><path d="M269.5,180c0,-16.01626 -13.2076,-29 -29.5,-29c-16.2924,0 -29.5,12.98374 -29.5,29c0,16.01626 13.2076,29 29.5,29c16.2924,0 29.5,-12.98374 29.5,-29z" fill="#2fff00" stroke-width="0"/><path d="M295,189.5c0,2.5 -2.5,2.5 -2.5,2.5l-3.38675,-0.41987c-2.05917,-1.3822 -4.19106,-2.50594 -5.64135,-4.61835c-1.11809,-1.62854 -1.08607,-4.4398 -2.9286,-5.15208c-2.32605,-0.8992 -6.84552,1.94061 -8.27552,3.45807c0,0 -1.76777,1.76777 -3.53553,0c-1.76777,-1.76777 0,-3.53553 0,-3.53553c2.98441,-2.86936 9.29098,-6.33593 13.72448,-4.54193c3.22439,1.30474 3.45076,4.32898 5.0714,6.84792c0.84511,1.31355 3.27652,2.66588 4.35865,3.38165l0.61325,-0.41987c0,0 2.5,0 2.5,2.5z" fill="#ff0000" stroke-width="0.5"/><path d="M253,170.5c0,-1.38071 1.11929,-2.5 2.5,-2.5c1.38071,0 2.5,1.11929 2.5,2.5c0,1.38071 -1.11929,2.5 -2.5,2.5c-1.38071,0 -2.5,-1.11929 -2.5,-2.5z" fill="#000000" stroke-width="0.5"/><path d="M251,192.5c0,-1.38071 1.11929,-2.5 2.5,-2.5c1.38071,0 2.5,1.11929 2.5,2.5c0,1.38071 -1.11929,2.5 -2.5,2.5c-1.38071,0 -2.5,-1.11929 -2.5,-2.5z" fill="#000000" stroke-width="0.5"/></g></g></svg>