<svg version="1.1" xmlns="http://www.w3.org/2000/svg" xmlns:xlink="http://www.w3.org/1999/xlink" width="122.03978" height="134.51459" viewBox="0,0,122.03978,134.51459"><g transform="translate(-178.98011,-111.49271)"><g data-paper-data="{&quot;isPaintingLayer&quot;:true}" fill-rule="nonzero" stroke="#000000" stroke-linejoin="miter" stroke-miterlimit="10" stroke-dasharray="" stroke-dashoffset="0" style="mix-blend-mode: normal"><path d="M240,227.86923c-32.31964,0 -58.51989,-25.49212 -58.51989,-56.93826c0,-31.44614 26.20026,-56.93826 58.51989,-56.93826c32.31964,0 58.51989,25.49212 58.51989,56.93826c0,31.44614 -26.20026,56.93826 -58.51989,56.93826z" fill="#a77751" stroke-width="5" stroke-linecap="butt"/><path d="M238.41839,207.5632c-18.88299,0 -34.1907,-14.6119 -34.1907,-32.63659c0,-18.02469 15.30772,-32.63657 34.1907,-32.63657c18.88299,0 34.1907,14.61188 34.1907,32.63657c0,18.02469 -15.30772,32.63659 -34.1907,32.63659z" fill="#a77751" stroke-width="2" stroke-linecap="butt"/><path d="M229.61169,171.30032l-11.39691,-14.50514" fill="none" stroke-width="2" stroke-linecap="round"/><path d="M246.189,171.30034l16.57733,-13.46907" fill="none" stroke-width="2" stroke-linecap="round"/><path d="M249.29726,186.84156l-13.46907,5.1804l-10.36083,-4.14433" fill="none" stroke-width="2" stroke-linecap="round"/><path d="M218.73284,168.19208c0,-1.43052 1.15968,-2.5902 2.5902,-2.5902c1.43054,0 2.5902,1.15968 2.5902,2.5902c0,1.43052 -1.15968,2.59022 -2.5902,2.59022c-1.43054,0 -2.5902,-1.15968 -2.5902,-2.59022z" fill="#ffffff" stroke-width="0.5" stroke-linecap="butt"/><path d="M253.95963,169.22816c0,-1.43052 1.15968,-2.59022 2.5902,-2.59022c1.43054,0 2.5902,1.15968 2.5902,2.59022c0,1.43054 -1.15966,2.5902 -2.5902,2.5902c-1.43054,0 -2.5902,-1.15968 -2.5902,-2.5902z" fill="#ffffff" stroke-width="0.5" stroke-linecap="butt"/><path d="M258.88783,244.20778l-34.64058,-3.59902l29.24205,1.79951" fill="none" stroke-width="NaN" stroke-linecap="round"/><path d="M253.93917,245.10754l-35.99021,0.89976" fill="none" stroke-width="NaN" stroke-linecap="round"/></g></g></svg>