<svg version="1.1" xmlns="http://www.w3.org/2000/svg" xmlns:xlink="http://www.w3.org/1999/xlink" width="138.25374" height="97.56224" viewBox="0,0,138.25374,97.56224"><g transform="translate(-95.37312,-177.21888)"><g data-paper-data="{&quot;isPaintingLayer&quot;:true}" fill-rule="nonzero" stroke-linecap="butt" stroke-linejoin="miter" stroke-miterlimit="10" stroke-dasharray="" stroke-dashoffset="0" style="mix-blend-mode: normal"><path d="M115.08077,271.69453l-16.62105,-58.69191l115.4595,-32.69714l16.62105,58.69191z" fill="#ffd600" stroke="#000000" stroke-width="5"/><g stroke="none"><path d="M142.09997,215.40046l19.8214,-11.29594l26.04063,1.2766l4.56277,31.37215l-20.803,15.15433l-20.85565,-5.19594l-8.76616,-31.3112" fill="#1f519b" stroke-width="1.97993"/><path d="M142.09997,215.40046l19.8214,-11.29594l26.20762,1.24012l-23.40853,12.22364l-22.62049,-2.16782" fill="#3579bc" stroke-width="1.97993"/><path d="M164.72046,217.56828l23.40853,-12.22364l4.39579,31.40863l-20.803,15.15433l-7.00132,-34.33932" fill="#2964aa" stroke-width="1.97993"/><path d="M171.81027,252.35986l-21.28203,-5.30337l-8.91819,-31.85767l20.21017,-11.51806l26.507,1.29986l4.64851,31.96047zM151.2034,246.36368l20.42945,5.0901l20.44198,-14.89202l-4.47641,-30.78059l-25.5759,-1.25289l-19.43106,11.07347z" fill="#000000" stroke-width="1.97993"/><path d="M151.17451,246.39459l-8.62153,-30.81039l19.45764,-11.09649l25.61547,1.26147l4.48821,30.82784l-20.47643,14.91879z" data-paper-data="{&quot;noHover&quot;:false,&quot;origItem&quot;:[&quot;Path&quot;,{&quot;applyMatrix&quot;:true,&quot;segments&quot;:[[217.345,209.1744],[239.6489,220.2046],[267.0076,208.1666],[269.6033,171.4982],[240.3894,163.6003],[215.1611,171.4844],[217.345,209.1744]],&quot;closed&quot;:true,&quot;fillColor&quot;:[0,0,0,1]}]}" fill="#efff00" stroke-width="0.5"/></g><path d="M156.37894,206.93757l24.65594,2.11245l5.63475,32.78589c0,0 -7.44595,5.12488 -7.35739,5.05928c0.08854,-0.06568 -6.23335,-33.68915 -6.23335,-33.68915l-23.38688,-2.28507z" fill="#ffb300" stroke="#000000" stroke-width="0.98997"/><path d="M170.34729,204.40725l8.2435,0.44894l-21.90784,11.94213l7.46164,33.65223l-7.15639,-1.78387l-7.67196,-32.57406l21.03106,-11.68536" fill="#ffb300" stroke="#000000" stroke-width="0.98997"/><g><g stroke="none"><path d="M178.80466,209.62637c-6.56482,1.4342 -12.70747,1.62208 -14.65436,1.64277l0.65037,-1.48142c1.65895,-0.27148 3.28394,-0.58024 4.83721,-0.91958c15.11168,-3.30141 21.1801,-8.85243 23.00141,-10.93939c0.00849,1.9616 -1.18072,4.50894 -1.19301,4.53909l-0.25818,0.54514l0.60257,0.05007c0.78459,0.06694 1.51465,0.02584 2.09931,-0.04533c-3.45825,2.95394 -8.52547,5.17554 -15.08533,6.60866z" fill="#cecece" stroke-width="1.97993"/><path d="M192.10328,199.09357c-2.60818,2.54356 -8.9865,7.25686 -22.37435,10.1834c-1.48945,0.3254 -3.0467,0.62273 -4.63507,0.88746l-0.29662,0.67523c2.4297,-0.05575 8.00129,-0.32987 13.91802,-1.62248c5.8725,-1.28295 10.52683,-3.19661 13.88058,-5.70238c-0.26908,0.0005 -0.55086,-0.01 -0.84082,-0.03413l-1.20185,-0.10094l0.51269,-1.09122c0.28034,-0.59277 0.80299,-1.92105 1.03742,-3.19494M192.92578,196.88521c0.60897,2.13571 -1.10147,5.75891 -1.10232,5.76256c1.25943,0.10559 2.36597,-0.07275 2.96173,-0.20291c0.29949,-0.06543 0.47145,-0.11841 0.47145,-0.11841c-4.10127,4.10784 -10.43087,6.41495 -16.36388,7.71112c-8.0608,1.76102 -15.38598,1.65338 -15.38598,1.65338l1.00228,-2.2802c1.78585,-0.28726 3.46162,-0.60702 5.04109,-0.95208c18.52582,-4.04728 23.37562,-11.57346 23.37562,-11.57346z" fill="#000000" stroke-width="1.97993"/><path d="M192.14135,199.07511c-0.23443,1.27389 -0.75429,2.60964 -1.03463,3.20241l-0.51197,1.09434l1.20203,0.10195c0.28996,0.02413 0.57183,0.03513 0.8409,0.03463c-3.35375,2.50577 -8.04852,4.46807 -13.92102,5.75102c-5.91672,1.29261 -11.5293,1.53934 -13.959,1.5951l0.37633,-0.70357c1.58836,-0.26473 3.14464,-0.56467 4.6341,-0.89007c13.38785,-2.92654 19.68895,-7.60534 22.29713,-10.1489" data-paper-data="{&quot;noHover&quot;:false,&quot;origItem&quot;:[&quot;Path&quot;,{&quot;applyMatrix&quot;:true,&quot;segments&quot;:[[[276.4915,164.913],[0,0],[-3.653,2.2789]],[[248.0894,171.027],[16.1958,-0.002],[-1.8018,0]],[[242.5139,170.8825],[1.9007,0.095],[0,0]],[[242.0011,171.5873],[0,0],[2.8194,0.5485]],[[258.4801,173.2247],[-7.1575,0],[7.104,0]],[[275.945,170.142],[-4.5043,2.0472],[-0.3108,-0.0673]],[[274.9828,169.8905],[0.3287,0.101],[0,0]],[273.6206,169.4708],[[274.4878,168.3402],[0,0],[0.4732,-0.6137]],[[276.4915,164.913],[-0.592,1.4117],[0,0]]],&quot;fillColor&quot;:[0,0,0,1]}]}" fill="#ffb300" stroke-width="0.5"/></g><g stroke="none"><path d="M149.51223,216.47167c-4.74479,1.03658 -8.80217,0.8084 -12.08046,-0.68067c0.41139,-0.1499 0.90323,-0.37912 1.39129,-0.72756l0.37997,-0.26992l-0.30942,-0.34908c-0.01851,-0.02168 -1.59404,-1.81761 -2.34181,-3.59198c2.23053,1.35611 8.13515,3.90912 18.61166,1.62035c1.09663,-0.23958 2.23012,-0.53008 3.36736,-0.86601l0.96259,1.141c-1.29063,0.69353 -5.28386,2.69765 -9.98119,3.72387z" fill="#cecece" stroke-width="1.97993"/><path d="M137.53927,211.85594c0.59371,0.99865 1.30737,1.9025 1.66749,2.31083l0.61728,0.69859l-0.76003,0.53985c-0.1944,0.13852 -0.38944,0.2583 -0.58045,0.36516c3.03412,1.11716 6.70143,1.21619 10.93726,0.29081c4.18506,-0.9143 7.8074,-2.61446 9.41545,-3.44082l-0.4491,-0.53293c-1.05992,0.30535 -2.11099,0.57265 -3.13397,0.79614c-9.087,1.98521 -14.81347,0.35708 -17.71394,-1.02763M135.79792,209.81164c0,0 5.84277,5.19012 19.27982,2.25292c1.144,-0.24993 2.34388,-0.5584 3.60067,-0.93586l1.46749,1.74064c0,0 -4.69799,2.73431 -10.54263,4.01117c-4.30294,0.94005 -9.22575,1.09122 -13.35548,-1.21842c0,0 0.13093,-0.01319 0.34693,-0.06038c0.43209,-0.0944 1.21104,-0.32797 1.98765,-0.87837c0,0 -2.41117,-2.7245 -2.78446,-4.91169z" fill="#000000" stroke-width="1.97993"/><path d="M137.58139,211.86001c2.90047,1.3847 8.54252,3.00886 17.62952,1.02365c1.02298,-0.22349 2.07419,-0.48747 3.1341,-0.79282l0.53356,0.5284c-1.60805,0.82636 -5.2589,2.56765 -9.44397,3.48195c-4.23582,0.92539 -7.95752,0.79819 -10.99164,-0.31896c0.19101,-0.10686 0.38582,-0.22744 0.58023,-0.36596l0.75964,-0.54137l-0.61797,-0.7023c-0.36012,-0.40833 -1.07398,-1.32207 -1.6677,-2.32072" data-paper-data="{&quot;noHover&quot;:false,&quot;origItem&quot;:[&quot;Path&quot;,{&quot;applyMatrix&quot;:true,&quot;segments&quot;:[[[210.2727,165.8851],[0,0],[0.4336,1.3028]],[[211.6151,168.9738],[-0.3128,-0.5623],[0,0]],[212.1516,169.9361],[[211.1379,170.3677],[0,0],[-0.2594,0.1109]],[[210.3756,170.6429],[0.2475,-0.0752],[3.2214,2.0552]],[[222.9304,173.7375],[-5.1241,0],[5.0627,0]],[[234.6694,172.1397],[-2.0651,0.5485],[0,0]],[[234.2853,171.4111],[0,0],[-1.3008,0.0852]],[[230.466,171.5398],[1.2375,0],[-10.9926,0]],[[210.2727,165.8851],[2.9996,2.3304],[0,0]]],&quot;fillColor&quot;:[0,0,0,1]}]}" fill="#ffb300" stroke-width="0.5"/></g><path d="M162.04496,207.61346c0,0 4.82874,-5.85641 6.44135,-8.78095c1.61268,-2.92455 6.1646,-6.26483 7.46623,-3.49342c1.30174,2.77148 1.22203,2.54023 3.32384,3.58149c2.10173,1.04128 4.14657,4.50612 -1.04455,7.73054c-5.19112,3.22442 -10.38865,4.77148 -13.7118,5.01567c-3.32308,0.24409 -3.32708,-3.00803 -2.47508,-4.05334z" fill="#ffb300" stroke="#000000" stroke-width="0.98997"/><path d="M159.53577,211.59131c-2.36693,0.3748 -8.85903,0.90137 -11.73782,0.31446c-2.87877,-0.58683 -4.87483,-1.22256 -3.74812,-2.9332c1.12682,-1.71058 3.06826,-2.6355 4.10281,-4.93296c1.03452,-2.29755 3.36599,-0.12658 5.1097,0.49222c1.74363,0.61882 5.43158,3.1981 5.43158,3.1981c1.41614,0.68179 3.2087,3.4866 0.84185,3.86138z" fill="#ffb300" stroke="#000000" stroke-width="0.98997"/><path d="M158.21563,209.0571c-0.382,-1.41871 1.41494,-2.02391 3.61898,-2.0767c2.20404,-0.05279 0.48779,1.25157 1.66373,2.70946c1.1742,1.45827 1.23941,2.24317 0.699,2.53273c-2.89441,1.5549 -3.6201,1.06698 -4.77539,0.71571c-1.69318,-0.51317 -0.82439,-2.46246 -1.2063,-3.88119z" fill="#ffb300" stroke="#000000" stroke-width="0.98997"/></g></g></g></svg>