<svg version="1.1" xmlns="http://www.w3.org/2000/svg" xmlns:xlink="http://www.w3.org/1999/xlink" width="490.58902" height="388.51766" viewBox="0,0,490.58902,388.51766"><g transform="translate(5.47842,21)"><g data-paper-data="{&quot;isPaintingLayer&quot;:true}" fill="none" fill-rule="nonzero" stroke="#000000" stroke-linecap="round" stroke-linejoin="miter" stroke-miterlimit="10" stroke-dasharray="" stroke-dashoffset="0" style="mix-blend-mode: normal"><path d="M59.5,-18.5l1,229" stroke-width="5"/><path d="M126.5,193.5l-2,104l-124,-2" stroke-width="5"/><path d="M58.5,113.20037l103.87266,5.29963l2.11985,-63.59551l177.00749,5.29963" stroke-width="5"/><path d="M480.5,285.5h-182l3,-56l110,-1l2,-116" stroke-width="5"/><path d="M481.5,47.5l-77,1" stroke-width="5"/><path d="M290.5,171.5h62" stroke-width="5"/><path d="M5.11611,350.58891l470.9749,5.55021l-275.92469,-3.17155l-197.42887,7.92887l-3.17155,-359.97071l480.48954,0.79289l-3.96444,360.7636l-277.591,-1.98222l3,-186l89,-2l2,-48" stroke-width="10"/></g></g></svg>