<svg version="1.1" xmlns="http://www.w3.org/2000/svg" xmlns:xlink="http://www.w3.org/1999/xlink" width="688" height="586" viewBox="0,0,688,586"><g transform="translate(78,131)"><g data-paper-data="{&quot;isPaintingLayer&quot;:true}" fill-rule="nonzero" stroke-linejoin="miter" stroke-miterlimit="10" stroke-dasharray="" stroke-dashoffset="0" style="mix-blend-mode: normal"><path d="M-75.5,395.5v-432h683v432z" fill="#9966ff" stroke="#000000" stroke-width="5" stroke-linecap="butt"/><path d="M222.98223,187.12344c-15.69318,-9.26763 -21.24363,-28.9241 -12.39726,-43.90396c8.84637,-14.97986 28.73962,-19.61053 44.43281,-10.34291c15.69318,9.26763 21.24363,28.9241 12.39726,43.90397c-8.84638,14.97986 -28.73962,19.61053 -44.4328,10.34291z" fill="#001aff" stroke="#000000" stroke-width="2" stroke-linecap="butt"/><path d="M231.10807,135.01566l2.35267,17.64837" fill="none" stroke="#000000" stroke-width="2" stroke-linecap="round"/><path d="M247.23772,160.80004l20.38749,-3.05778" fill="none" stroke="#000000" stroke-width="2" stroke-linecap="round"/><path d="M242.19339,175.24147l-13.73631,-2.30521l-6.57661,-8.52925" fill="none" stroke="#000000" stroke-width="2" stroke-linecap="round"/><path d="M225.94509,144.74158c0.70209,-1.18887 2.23503,-1.58349 3.42391,-0.8814c1.18887,0.70209 1.58349,2.23503 0.8814,3.42391c-0.70209,1.18887 -2.23503,1.58349 -3.4239,0.8814c-1.18887,-0.70209 -1.58349,-2.23503 -0.8814,-3.42391z" fill="#ffffff" stroke="none" stroke-width="0.5" stroke-linecap="butt"/><path d="M254.71268,162.89168c0.70209,-1.18887 2.23504,-1.58349 3.42391,-0.8814c1.18887,0.70209 1.58349,2.23503 0.8814,3.4239c-0.70209,1.18887 -2.23503,1.58349 -3.42391,0.8814c-1.18887,-0.70209 -1.58349,-2.23503 -0.88141,-3.42391z" fill="#ffffff" stroke="none" stroke-width="0.5" stroke-linecap="butt"/><path d="M330.4806,175.45129c-16.46145,-7.82211 -23.75326,-26.90126 -16.2867,-42.61447c7.46656,-15.71321 26.86406,-22.11021 43.32552,-14.2881c16.46146,7.82211 23.75327,26.90126 16.2867,42.61447c-7.46656,15.71321 -26.86406,22.11021 -43.32551,14.2881z" fill="#ff0000" stroke="#000000" stroke-width="2" stroke-linecap="butt"/><path d="M333.89808,122.82458l3.92674,17.36608" fill="none" stroke="#000000" stroke-width="2" stroke-linecap="round"/><path d="M372.30716,142.18285l-20.03089,4.8748" fill="none" stroke="#000000" stroke-width="2" stroke-linecap="round"/><path d="M325.77829,155.96211l13.81619,1.7643l6.90631,8.26456" fill="none" stroke="#000000" stroke-width="2" stroke-linecap="round"/><path d="M329.62863,132.97454c0.59258,-1.24708 2.08393,-1.77766 3.33101,-1.18507c1.24708,0.59259 1.77765,2.08392 1.18507,3.33101c-0.59258,1.24708 -2.08393,1.77766 -3.33101,1.18507c-1.24708,-0.59259 -1.77765,-2.08392 -1.18507,-3.33101z" fill="#ffffff" stroke="none" stroke-width="0.5" stroke-linecap="butt"/><path d="M359.90877,148.47013c0.59258,-1.24708 2.08393,-1.77766 3.33101,-1.18507c1.24708,0.59259 1.77765,2.08393 1.18507,3.33101c-0.59258,1.24708 -2.08393,1.77766 -3.33101,1.18507c-1.24708,-0.59259 -1.77765,-2.08393 -1.18507,-3.33101z" fill="#ffffff" stroke="none" stroke-width="0.5" stroke-linecap="butt"/><path d="M165.5,452.5l-20,-240" fill="none" stroke="#000000" stroke-width="5" stroke-linecap="round"/><path d="M127.5,115.5l-19,-149" fill="none" stroke="#000000" stroke-width="5" stroke-linecap="round"/><path d="M120.5,37.5l148,-20" fill="none" stroke="#000000" stroke-width="5" stroke-linecap="round"/><path d="M464.5,-26.5l23,188" fill="none" stroke="#000000" stroke-width="5" stroke-linecap="round"/><path d="M531.5,219.5l-224,55l-9,-69" fill="none" stroke="#000000" stroke-width="5" stroke-linecap="round"/><path d="M14.5,271.5l-21,-134l140,-22" fill="none" stroke="#000000" stroke-width="5" stroke-linecap="round"/><text transform="translate(156.00726,116.78619) rotate(-8.77768) scale(1.45936,1.45936)" font-size="40" xml:space="preserve" fill="#000000" fill-rule="nonzero" stroke="none" stroke-width="1" stroke-linecap="butt" stroke-linejoin="miter" stroke-miterlimit="10" stroke-dasharray="" stroke-dashoffset="0" font-family="Marker" font-weight="normal" text-anchor="start" style="mix-blend-mode: normal"><tspan x="0" dy="0">labyrinth</tspan></text><path d="M63.15574,46.88481l11.99124,-8.05473" fill="none" stroke="none" stroke-width="0.85738" stroke-linecap="butt"/><path d="M72.61654,46.70284l-7.29351,-10.85616" fill="none" stroke="none" stroke-width="0.85738" stroke-linecap="butt"/><path d="M95.6423,63.79457l2.02044,12.92183" fill="none" stroke="none" stroke-width="0.85738" stroke-linecap="butt"/><path d="M62.27025,85.0109l-1.12398,-7.17555" fill="none" stroke="none" stroke-width="0.85738" stroke-linecap="butt"/><path d="M58.8529,79.48123l4.63716,3.38221" fill="none" stroke="none" stroke-width="0.85738" stroke-linecap="butt"/><text transform="translate(254.75,-110.75) scale(0.5,0.5)" font-size="40" xml:space="preserve" fill="#000000" fill-rule="nonzero" stroke="none" stroke-width="1" stroke-linecap="butt" stroke-linejoin="miter" stroke-miterlimit="10" stroke-dasharray="" stroke-dashoffset="0" font-family="Marker" font-weight="normal" text-anchor="start" style="mix-blend-mode: normal"><tspan x="0" dy="0"> </tspan></text></g></g></svg>