<svg version="1.1" xmlns="http://www.w3.org/2000/svg" xmlns:xlink="http://www.w3.org/1999/xlink" width="148.5" height="69" viewBox="0,0,148.5,69"><g transform="translate(-165.75,-144.25)"><g data-paper-data="{&quot;isPaintingLayer&quot;:true}" fill-rule="nonzero" stroke-linejoin="miter" stroke-miterlimit="10" stroke-dasharray="" stroke-dashoffset="0" style="mix-blend-mode: normal"><path d="M167.5,211.5v-63h145v63z" fill="#00ff40" stroke="#000000" stroke-width="3.5" stroke-linecap="butt"/><text transform="translate(204.5,166) scale(0.5,0.5)" font-size="40" xml:space="preserve" fill="#000000" fill-rule="nonzero" stroke="none" stroke-width="1" stroke-linecap="butt" stroke-linejoin="miter" stroke-miterlimit="10" stroke-dasharray="" stroke-dashoffset="0" font-family="Sans Serif" font-weight="normal" text-anchor="start" style="mix-blend-mode: normal"><tspan x="0" dy="0">game pass</tspan></text><path d="M284.58164,207c-9.43392,0 -17.08163,-7.16344 -17.08163,-16c0,-8.83656 7.6477,-16 17.08163,-16c9.43392,0 17.08163,7.16344 17.08163,16c0,8.83656 -7.6477,16 -17.08163,16z" fill="#10ff00" stroke="#000000" stroke-width="3" stroke-linecap="butt"/><path d="M292.80612,196.55102l-6.32653,3.26531l-8.22449,-3.91837" fill="none" stroke="#bdff00" stroke-width="3" stroke-linecap="round"/><path d="M276.9898,203.08163l15.3175,-25.69388l5.10583,2.63527z" fill="#185b00" stroke="#000000" stroke-width="3" stroke-linecap="round"/><path d="M289.0102,187.40816l6.32653,-5.22449v9.14286z" fill="none" stroke="#bdff00" stroke-width="3" stroke-linecap="round"/><path d="M272.56122,180.02302l5.10583,-2.63527l15.3175,25.69388z" data-paper-data="{&quot;index&quot;:null}" fill="#185b00" stroke="#000000" stroke-width="3" stroke-linecap="round"/><path d="M275.72449,182.18367l7.59184,5.87755l-7.59184,1.95918z" fill="none" stroke="#bdff00" stroke-width="3" stroke-linecap="round"/></g></g></svg>