<svg version="1.1" xmlns="http://www.w3.org/2000/svg" xmlns:xlink="http://www.w3.org/1999/xlink" width="88.21016" height="106.01819" viewBox="0,0,88.21016,106.01819"><g transform="translate(-195.22917,-141.63493)"><g data-paper-data="{&quot;isPaintingLayer&quot;:true}" fill-rule="nonzero" stroke-linejoin="miter" stroke-miterlimit="10" stroke-dasharray="" stroke-dashoffset="0" style="mix-blend-mode: normal"><path d="M197.56067,217.36506v-74.73013h84.87866v74.73013z" fill="#ff0000" stroke="#000000" stroke-width="2" stroke-linecap="butt"/><path d="M240,211.5c-18.22539,0 -33,-14.10303 -33,-31.5c0,-17.39697 14.77461,-31.5 33,-31.5c18.22539,0 33,14.10303 33,31.5c0,17.39697 -14.77461,31.5 -33,31.5z" fill="#001aff" stroke="#000000" stroke-width="2" stroke-linecap="butt"/><path d="M231.5,176.5l-11,-14" fill="none" stroke="#000000" stroke-width="2" stroke-linecap="round"/><path d="M247.5,176.5l16,-13" fill="none" stroke="#000000" stroke-width="2" stroke-linecap="round"/><path d="M250.5,191.5l-13,5l-10,-4" fill="none" stroke="#000000" stroke-width="2" stroke-linecap="round"/><path d="M221,173.5c0,-1.38071 1.11929,-2.5 2.5,-2.5c1.38071,0 2.5,1.11929 2.5,2.5c0,1.38071 -1.11929,2.5 -2.5,2.5c-1.38071,0 -2.5,-1.11929 -2.5,-2.5z" fill="#ffffff" stroke="none" stroke-width="0.5" stroke-linecap="butt"/><path d="M255,174.5c0,-1.38071 1.11929,-2.5 2.5,-2.5c1.38071,0 2.5,1.11929 2.5,2.5c0,1.38071 -1.11929,2.5 -2.5,2.5c-1.38071,0 -2.5,-1.11929 -2.5,-2.5z" fill="#ffffff" stroke="none" stroke-width="0.5" stroke-linecap="butt"/><path d="M282.18166,217.8218l-0.87197,24.19723l-85.0173,0.65398l1.52595,-25.0692z" fill="#ff0000" stroke="#000000" stroke-width="2" stroke-linecap="round"/><text transform="translate(207.4178,239.27687) scale(0.6701,0.6701)" font-size="40" xml:space="preserve" fill="#000000" fill-rule="nonzero" stroke="none" stroke-width="1" stroke-linecap="butt" stroke-linejoin="miter" stroke-miterlimit="10" stroke-dasharray="" stroke-dashoffset="0" font-family="Sans Serif" font-weight="normal" text-anchor="start" style="mix-blend-mode: normal"><tspan x="0" dy="0">used</tspan></text></g></g></svg>