<svg version="1.1" xmlns="http://www.w3.org/2000/svg" xmlns:xlink="http://www.w3.org/1999/xlink" width="88.42037" height="133.01908" viewBox="0,0,88.42037,133.01908"><defs><linearGradient x1="237.05238" y1="156.50474" x2="237.05238" y2="219.50474" gradientUnits="userSpaceOnUse" id="color-1"><stop offset="0" stop-color="#ff0000"/><stop offset="1" stop-color="#1a1a1a"/></linearGradient><linearGradient x1="265.17661" y1="146.88349" x2="265.17661" y2="172.05024" gradientUnits="userSpaceOnUse" id="color-2"><stop offset="0" stop-color="#ff0000"/><stop offset="1" stop-color="#1a1a1a"/></linearGradient><linearGradient x1="213.57068" y1="145.26598" x2="213.57068" y2="170.97637" gradientUnits="userSpaceOnUse" id="color-3"><stop offset="0" stop-color="#ff0000"/><stop offset="1" stop-color="#1a1a1a"/></linearGradient><linearGradient x1="225.02858" y1="163.94129" x2="225.02858" y2="176.11175" gradientUnits="userSpaceOnUse" id="color-4"><stop offset="0" stop-color="#ffffff"/><stop offset="1" stop-color="#1a1a1a"/></linearGradient><linearGradient x1="250.53285" y1="168.23675" x2="250.53285" y2="179.6913" gradientUnits="userSpaceOnUse" id="color-5"><stop offset="0" stop-color="#ffffff"/><stop offset="1" stop-color="#1a1a1a"/></linearGradient></defs><g transform="translate(-192.69807,-113.98076)"><g data-paper-data="{&quot;isPaintingLayer&quot;:true}" fill-rule="nonzero" stroke-linejoin="miter" stroke-miterlimit="10" stroke-dasharray="" stroke-dashoffset="0" style="mix-blend-mode: normal"><path d="M195.23978,218.21131v-74.73013h84.87866v74.73013z" fill="#ff0000" stroke="#000000" stroke-width="2" stroke-linecap="butt"/><path d="M279.65056,219.29867l-0.87197,24.19723l-85.0173,0.65398l1.52595,-25.0692z" fill="#ff0000" stroke="#000000" stroke-width="2" stroke-linecap="round"/><text transform="translate(211.74456,239.74409) scale(0.58046,0.58046)" font-size="40" xml:space="preserve" fill="#000000" fill-rule="nonzero" stroke="none" stroke-width="1" stroke-linecap="butt" stroke-linejoin="miter" stroke-miterlimit="10" stroke-dasharray="" stroke-dashoffset="0" font-family="Sans Serif" font-weight="normal" text-anchor="start" style="mix-blend-mode: normal"><tspan x="0" dy="0">used</tspan></text><path d="M237.05238,219.50474c-18.22539,0 -33,-14.10303 -33,-31.5c0,-17.39697 14.77461,-31.5 33,-31.5c18.22539,0 33,14.10303 33,31.5c0,17.39697 -14.77461,31.5 -33,31.5z" fill="url(#color-1)" stroke="#000000" stroke-width="2" stroke-linecap="butt"/><path d="M256.05366,161.82625l18.2459,-14.94276l-7.86462,25.16675z" fill="url(#color-2)" stroke="#000000" stroke-width="2" stroke-linecap="round"/><path d="M209.57129,170.97637l-1.14269,-25.7104l10.28417,17.2831l-7.9988,6.57044" fill="url(#color-3)" stroke="#000000" stroke-width="2" stroke-linecap="round"/><path d="M219.74876,166.44697l4.47443,-2.50568l7.51704,8.94887l-6.62216,3.22159l-6.80114,-9.48579" fill="url(#color-4)" stroke="#000000" stroke-width="2" stroke-linecap="round"/><path d="M243.37376,173.78504l9.66477,-5.54829l4.6534,4.83239l-10.38068,6.62216z" fill="url(#color-5)" stroke="#000000" stroke-width="2" stroke-linecap="round"/><path d="M221.18057,195.79926l32.57386,4.47443" fill="none" stroke="#000000" stroke-width="2" stroke-linecap="round"/><text transform="translate(215.50706,135.73076) scale(0.5,0.5)" font-size="40" xml:space="preserve" fill="#000000" fill-rule="nonzero" stroke="none" stroke-width="1" stroke-linecap="butt" stroke-linejoin="miter" stroke-miterlimit="10" stroke-dasharray="" stroke-dashoffset="0" font-family="Sans Serif" font-weight="normal" text-anchor="start" style="mix-blend-mode: normal"><tspan x="0" dy="0">epic</tspan></text></g></g></svg>