<svg version="1.1" xmlns="http://www.w3.org/2000/svg" xmlns:xlink="http://www.w3.org/1999/xlink" width="115.27507" height="135.69718" viewBox="0,0,115.27507,135.69718"><g transform="translate(-43.88339,-168.41004)"><g data-paper-data="{&quot;isPaintingLayer&quot;:true}" fill-rule="nonzero" stroke-linejoin="miter" stroke-miterlimit="10" stroke-dasharray="" stroke-dashoffset="0" style="mix-blend-mode: normal"><path d="M45.47176,274.20607v-104.54603h109.21757v104.54603z" fill="#ffffff" stroke="#000000" stroke-width="2.5" stroke-linecap="butt"/><path d="M61.5,255.5v-71h76v71z" fill="#ffffff" stroke="#17ff00" stroke-width="7.5" stroke-linecap="butt"/><path d="M82,212.5c0,-1.38071 1.11929,-2.5 2.5,-2.5c1.38071,0 2.5,1.11929 2.5,2.5c0,1.38071 -1.11929,2.5 -2.5,2.5c-1.38071,0 -2.5,-1.11929 -2.5,-2.5z" fill="#ffffff" stroke="none" stroke-width="0.5" stroke-linecap="butt"/><path d="M116,213.5c0,-1.38071 1.11929,-2.5 2.5,-2.5c1.38071,0 2.5,1.11929 2.5,2.5c0,1.38071 -1.11929,2.5 -2.5,2.5c-1.38071,0 -2.5,-1.11929 -2.5,-2.5z" fill="#ffffff" stroke="none" stroke-width="0.5" stroke-linecap="butt"/><path d="M63.5,258.5l-5,-9v-59l10,-9h61l12,10l-2,59l-10,8z" fill="none" stroke="#000000" stroke-width="2.5" stroke-linecap="round"/><path d="M66.5,250.5v-61h66v61z" fill="none" stroke="#000000" stroke-width="2.5" stroke-linecap="butt"/><path d="M155.42593,273.62286l2.37654,29.23148l-112.17284,-0.23765l-0.47531,-28.75617z" fill="#ffffff" stroke="#000000" stroke-width="2.5" stroke-linecap="round"/><text transform="translate(44.04086,290.48069) scale(0.31494,0.31494)" font-size="40" xml:space="preserve" fill="#9966ff" fill-rule="nonzero" stroke="none" stroke-width="1" stroke-linecap="butt" stroke-linejoin="miter" stroke-miterlimit="10" stroke-dasharray="" stroke-dashoffset="0" font-family="Sans Serif" font-weight="normal" text-anchor="start" style="mix-blend-mode: normal"><tspan x="0" dy="0">already purchased</tspan></text></g></g></svg>