<svg version="1.1" xmlns="http://www.w3.org/2000/svg" xmlns:xlink="http://www.w3.org/1999/xlink" width="88.42037" height="129.19062" viewBox="0,0,88.42037,129.19062"><g transform="translate(-194.1723,-113.98076)"><g data-paper-data="{&quot;isPaintingLayer&quot;:true}" fill-rule="nonzero" stroke-miterlimit="10" stroke-dasharray="" stroke-dashoffset="0" style="mix-blend-mode: normal"><path d="M196.71401,215.89466v-74.73013h84.87866v74.73013z" fill="#676767" stroke="#000000" stroke-width="2" stroke-linecap="butt" stroke-linejoin="miter"/><path d="M281.12479,216.98202l-0.87197,24.19723l-85.0173,0.65398l1.52595,-25.0692z" fill="#676767" stroke="#000000" stroke-width="2" stroke-linecap="round" stroke-linejoin="miter"/><path d="M240,211.5c-18.22539,0 -33,-14.10303 -33,-31.5c0,-17.39697 14.77461,-31.5 33,-31.5c18.22539,0 33,14.10303 33,31.5c0,17.39697 -14.77461,31.5 -33,31.5z" fill="#676767" stroke="#000000" stroke-width="2" stroke-linecap="butt" stroke-linejoin="miter"/><path d="M224.19097,165.65061c0.88008,-2.00118 2.7795,-3.39208 4.98637,-3.39208c3.04245,0 5.51168,2.6357 5.51168,5.88326c0,6.39583 -6.47567,8.37907 -10.49804,14.87042c-4.25453,-6.53154 -10.49801,-8.26373 -10.49801,-14.87042c0,-3.24756 2.46923,-5.88326 5.51168,-5.88326c2.20688,0 4.1063,1.3909 4.98633,3.39208z" fill="#676767" stroke="#000000" stroke-width="4.22139" stroke-linecap="butt" stroke-linejoin="round"/><path d="M253.17392,164.3864c0.88008,-2.00118 2.7795,-3.39208 4.98636,-3.39208c3.04245,0 5.51168,2.6357 5.51168,5.88326c0,6.39583 -6.47567,8.37907 -10.49804,14.87042c-4.25453,-6.53154 -10.49801,-8.26373 -10.49801,-14.87042c0,-3.24756 2.46923,-5.88326 5.51168,-5.88326c2.20688,0 4.1063,1.3909 4.98633,3.39208z" fill="#676767" stroke="#000000" stroke-width="4.22139" stroke-linecap="butt" stroke-linejoin="round"/><path d="M232.18217,198.1752l-6.26421,-6.44318l28.99432,-0.35796l-9.12784,6.98012l-12.34943,-0.53693" fill="none" stroke="#000000" stroke-width="4.22139" stroke-linecap="round" stroke-linejoin="miter"/><text transform="translate(203.07543,224.97116) scale(0.30083,0.30083)" font-size="40" xml:space="preserve" fill="#000000" fill-rule="nonzero" stroke="none" stroke-width="1" stroke-linecap="butt" stroke-linejoin="miter" stroke-miterlimit="10" stroke-dasharray="" stroke-dashoffset="0" font-family="Sans Serif" font-weight="normal" text-anchor="start" style="mix-blend-mode: normal"><tspan x="0" dy="0">    the time </tspan><tspan x="0" dy="48px">has not come</tspan></text><text transform="translate(215.50706,135.73076) scale(0.5,0.5)" font-size="40" xml:space="preserve" fill="#000000" fill-rule="nonzero" stroke="none" stroke-width="1" stroke-linecap="butt" stroke-linejoin="miter" stroke-miterlimit="10" stroke-dasharray="" stroke-dashoffset="0" font-family="Sans Serif" font-weight="normal" text-anchor="start" style="mix-blend-mode: normal"><tspan x="0" dy="0">epic</tspan></text></g></g></svg>