<svg version="1.1" xmlns="http://www.w3.org/2000/svg" xmlns:xlink="http://www.w3.org/1999/xlink" width="77" height="74" viewBox="0,0,77,74"><g transform="translate(-201.5,-143)"><g data-paper-data="{&quot;isPaintingLayer&quot;:true}" fill-rule="nonzero" stroke-linejoin="miter" stroke-miterlimit="10" stroke-dasharray="" stroke-dashoffset="0" style="mix-blend-mode: normal"><path d="M240,214.5c-19.88225,0 -36,-15.44618 -36,-34.5c0,-19.05382 16.11775,-34.5 36,-34.5c19.88225,0 36,15.44618 36,34.5c0,19.05382 -16.11775,34.5 -36,34.5z" fill="#f500ff" stroke="#000000" stroke-width="5" stroke-linecap="butt"/><path d="M218.89306,200.16186v-37.64592h41.22082v37.64592z" fill="#ffea00" stroke="#000000" stroke-width="2.5" stroke-linecap="butt"/><path d="M224.40417,195.04302v-27.6271h29.89161v27.6271z" fill="#ffffff" stroke="#000000" stroke-width="2.5" stroke-linecap="butt"/><path d="M240.05207,193.04001c-6.87862,0 -12.45484,-5.32276 -12.45484,-11.88871c0,-6.56595 5.57622,-11.88871 12.45484,-11.88871c6.87862,0 12.45484,5.32276 12.45484,11.88871c0,6.56595 -5.57622,11.88871 -12.45484,11.88871z" fill="#ffffff" stroke="#ffffff" stroke-width="2" stroke-linecap="butt"/><path d="M230.5411,174.01807l4.98194,6.34065" fill="none" stroke="#ffffff" stroke-width="2" stroke-linecap="round"/><path d="M242.76949,180.35872l7.24645,-5.88774" fill="none" stroke="#ffffff" stroke-width="2" stroke-linecap="round"/><path d="M230.76755,179.00001c0,-0.62533 0.50693,-1.13226 1.13226,-1.13226c0.62533,0 1.13226,0.50693 1.13226,1.13226c0,0.62533 -0.50693,1.13226 -1.13226,1.13226c-0.62533,0 -1.13226,-0.50693 -1.13226,-1.13226z" fill="#ffffff" stroke="none" stroke-width="0.5" stroke-linecap="butt"/><path d="M246.16626,179.45291c0,-0.62533 0.50693,-1.13226 1.13226,-1.13226c0.62533,0 1.13226,0.50693 1.13226,1.13226c0,0.62533 -0.50693,1.13226 -1.13226,1.13226c-0.62533,0 -1.13226,-0.50693 -1.13226,-1.13226z" fill="#ffffff" stroke="none" stroke-width="0.5" stroke-linecap="butt"/><path d="M245.93981,186.24646l-6.34065,2.71742l-5.88774,-2.26452" fill="none" stroke="#ffffff" stroke-width="2" stroke-linecap="round"/><text transform="translate(218.0625,167.99039) scale(0.22645,0.22645)" font-size="40" xml:space="preserve" fill="#e100ff" fill-rule="nonzero" stroke="none" stroke-width="1" stroke-linecap="butt" stroke-linejoin="miter" stroke-miterlimit="10" stroke-dasharray="" stroke-dashoffset="0" font-family="Sans Serif" font-weight="normal" text-anchor="start" style="mix-blend-mode: normal"><tspan x="0" dy="0">BIRTHDAY</tspan></text><path d="M221.29153,199.52727l0.10764,-29.06129" fill="none" stroke="#e100ff" stroke-width="1.5" stroke-linecap="round"/><path d="M223.44422,170.25072l-3.98247,-0.10763" fill="none" stroke="#e100ff" stroke-width="1.5" stroke-linecap="round"/><path d="M254.76583,170.46599h4.52064" fill="none" stroke="#e100ff" stroke-width="1.5" stroke-linecap="round"/><path d="M219.46175,197.26696l39.82473,-0.10763" fill="none" stroke="#e100ff" stroke-width="1.5" stroke-linecap="round"/><path d="M257.13379,170.68126l0.10763,28.73839l-1.72215,-1.93742l-2.04505,2.47559l-1.29161,-2.36796l-3.01376,2.15269l-1.61451,-2.15269l-1.93742,1.93742l-1.50688,-2.04505l-2.58322,2.26032l-2.26032,-2.04505l-3.22903,1.93742l-1.50688,-1.93742l-2.15269,2.15269l-1.61451,-2.26032l-2.47559,2.36796l-2.04505,-2.26032l-2.58322,1.82978" fill="none" stroke="#e100ff" stroke-width="1.5" stroke-linecap="round"/></g></g></svg>