<svg version="1.1" xmlns="http://www.w3.org/2000/svg" xmlns:xlink="http://www.w3.org/1999/xlink" width="97.97155" height="133.24242" viewBox="0,0,97.97155,133.24242"><defs><radialGradient cx="201.4531" cy="156.01211" r="42.43933" gradientUnits="userSpaceOnUse" id="color-1"><stop offset="0" stop-color="#ff0000"/><stop offset="1" stop-color="#ff0000"/></radialGradient><radialGradient cx="201.24249" cy="221.93115" r="42.94463" gradientUnits="userSpaceOnUse" id="color-2"><stop offset="0" stop-color="#ff0000"/><stop offset="1" stop-color="#ff0000"/></radialGradient><radialGradient cx="237.95712" cy="177.69352" r="33" gradientUnits="userSpaceOnUse" id="color-3"><stop offset="0" stop-color="#ffffff"/><stop offset="1" stop-color="#000dff"/></radialGradient><radialGradient cx="228.20398" cy="168.99477" r="6.85356" gradientUnits="userSpaceOnUse" id="color-4"><stop offset="0" stop-color="#ffffff"/><stop offset="1" stop-color="#000dff"/></radialGradient><radialGradient cx="251.07113" cy="169.58787" r="7.57845" gradientUnits="userSpaceOnUse" id="color-5"><stop offset="0" stop-color="#ffffff"/><stop offset="1" stop-color="#000dff"/></radialGradient><radialGradient cx="239.6705" cy="194.95921" r="16.0795" gradientUnits="userSpaceOnUse" id="color-6"><stop offset="0" stop-color="#ffffff"/><stop offset="1" stop-color="#000dff"/></radialGradient><radialGradient cx="230.93765" cy="159.38177" r="33" gradientUnits="userSpaceOnUse" id="color-7"><stop offset="0" stop-color="#ff0000"/><stop offset="1" stop-color="#ff0000"/></radialGradient><radialGradient cx="226.51497" cy="172.22861" r="8.56695" gradientUnits="userSpaceOnUse" id="color-8"><stop offset="0" stop-color="#000000"/><stop offset="1" stop-color="#000000"/></radialGradient><radialGradient cx="234.93913" cy="173.49224" r="8.56695" gradientUnits="userSpaceOnUse" id="color-9"><stop offset="0" stop-color="#ffffff"/><stop offset="1" stop-color="#ff0000"/></radialGradient><radialGradient cx="241.25725" cy="173.91344" r="8.43515" gradientUnits="userSpaceOnUse" id="color-10"><stop offset="0" stop-color="#ffffff"/><stop offset="1" stop-color="#ff0000"/></radialGradient></defs><g transform="translate(-193.11928,-111.5765)"><g data-paper-data="{&quot;isPaintingLayer&quot;:true}" fill-rule="nonzero" stroke-linejoin="miter" stroke-miterlimit="10" stroke-dasharray="" stroke-dashoffset="0" style="mix-blend-mode: normal"><path d="M195.66099,215.68405v-74.73013h84.87866v74.73013z" fill="url(#color-1)" stroke="#000000" stroke-width="2" stroke-linecap="butt"/><path d="M280.07177,216.77141l-0.87197,24.19723l-85.0173,0.65398l1.52595,-25.0692z" fill="url(#color-2)" stroke="#000000" stroke-width="2" stroke-linecap="round"/><text transform="translate(210.60855,236.39205) scale(0.67415,0.67415)" font-size="40" xml:space="preserve" fill="#000000" fill-rule="nonzero" stroke="none" stroke-width="1" stroke-linecap="butt" stroke-linejoin="miter" stroke-miterlimit="10" stroke-dasharray="" stroke-dashoffset="0" font-family="Sans Serif" font-weight="normal" text-anchor="start" style="mix-blend-mode: normal"><tspan x="0" dy="0">use</tspan></text><path d="M240,211.5c-18.22539,0 -33,-14.10303 -33,-31.5c0,-17.39697 14.77461,-31.5 33,-31.5c18.22539,0 33,14.10303 33,31.5c0,17.39697 -14.77461,31.5 -33,31.5z" fill="url(#color-3)" stroke="#000000" stroke-width="2" stroke-linecap="butt"/><path d="M235.05755,168.99477c0,3.49395 -3.06845,6.32636 -6.85356,6.32636c-3.78512,0 -6.85356,-2.83241 -6.85356,-6.32636c0,-3.49395 3.06844,-6.32636 6.85355,-6.32636c3.78511,0 6.85355,2.83241 6.85355,6.32636z" fill="url(#color-4)" stroke="#000000" stroke-width="2" stroke-linecap="butt"/><path d="M251.07113,176.50732c-4.18546,0 -7.57845,-3.09794 -7.57845,-6.91945c0,-3.8215 3.39299,-6.91945 7.57845,-6.91945c4.18546,0 7.57845,3.09794 7.57845,6.91945c0,3.8215 -3.39299,6.91945 -7.57845,6.91945z" fill="url(#color-5)" stroke="#000000" stroke-width="2" stroke-linecap="butt"/><path d="M223.59101,199.17678v-8.43515h32.159v8.43515z" fill="url(#color-6)" stroke="#000000" stroke-width="2" stroke-linecap="butt"/><path d="M240,211.5c-18.22539,0 -33,-14.10303 -33,-31.5c0,-17.39697 14.77461,-31.5 33,-31.5c18.22539,0 33,14.10303 33,31.5c0,17.39697 -14.77461,31.5 -33,31.5z" fill="url(#color-7)" stroke="#000000" stroke-width="2" stroke-linecap="butt"/><path d="M206.72071,180.0659l42.57113,-27.54602" fill="none" stroke="#000000" stroke-width="5" stroke-linecap="round"/><path d="M211.33368,191.66423l47.5795,-34.13598" fill="none" stroke="#000000" stroke-width="5" stroke-linecap="round"/><path d="M219.10984,203.26255l47.31589,-38.35355" fill="none" stroke="#000000" stroke-width="5" stroke-linecap="round"/><path d="M228.07218,208.27092l43.09833,-34.53138" fill="none" stroke="#000000" stroke-width="5" stroke-linecap="round"/><path d="M246.65586,210.51151l-34.92678,-42.70293" fill="none" stroke="#000000" stroke-width="5" stroke-linecap="round"/><path d="M259.44038,204.18515l-39.93515,-47.5795" fill="none" stroke="#000000" stroke-width="5" stroke-linecap="round"/><path d="M233.34414,151.20189l35.32218,42.70292" fill="none" stroke="#000000" stroke-width="5" stroke-linecap="round"/><path d="M226.88598,180.3295c-4.7314,0 -8.56695,-3.51101 -8.56695,-7.84205c0,-4.33104 3.83556,-7.84205 8.56695,-7.84205c4.7314,0 8.56695,3.51101 8.56695,7.84205c0,4.33104 -3.83556,7.84205 -8.56695,7.84205z" fill="url(#color-8)" stroke="url(#color-9)" stroke-width="5" stroke-linecap="butt"/><path d="M249.68724,180.0659c-4.65861,0 -8.43515,-3.24546 -8.43515,-7.24895c0,-4.00348 3.77655,-7.24895 8.43515,-7.24895c4.65861,0 8.43515,3.24546 8.43515,7.24895c0,4.00348 -3.77655,7.24895 -8.43515,7.24895z" fill="#ffffff" stroke="url(#color-10)" stroke-width="5" stroke-linecap="butt"/><path d="M222.53661,199.96758v-12.25733h34.39958v12.25733z" fill="#ffffff" stroke="#000000" stroke-width="5" stroke-linecap="butt"/><text transform="translate(193.63771,133.32651) scale(0.5,0.5)" font-size="40" xml:space="preserve" fill="#000000" fill-rule="nonzero" stroke="none" stroke-width="1" stroke-linecap="butt" stroke-linejoin="miter" stroke-miterlimit="10" stroke-dasharray="" stroke-dashoffset="0" font-family="Sans Serif" font-weight="normal" text-anchor="start" style="mix-blend-mode: normal"><tspan x="0" dy="0">legendary</tspan></text></g></g></svg>