<svg version="1.1" xmlns="http://www.w3.org/2000/svg" xmlns:xlink="http://www.w3.org/1999/xlink" width="88.42037" height="132.42657" viewBox="0,0,88.42037,132.42657"><g transform="translate(-195.64958,-112.17038)"><g data-paper-data="{&quot;isPaintingLayer&quot;:true}" fill-rule="nonzero" stroke-linejoin="miter" stroke-miterlimit="10" stroke-dasharray="" stroke-dashoffset="0" style="mix-blend-mode: normal"><path d="M198.19129,215.47319v-74.73013h84.87866v74.73013z" fill="#7b7b7b" stroke="#000000" stroke-width="2" stroke-linecap="butt"/><path d="M282.60207,216.56055l-0.87197,24.19723l-85.0173,0.65398l1.52595,-25.0692z" fill="#7b7b7b" stroke="#000000" stroke-width="2" stroke-linecap="round"/><text transform="translate(214.83489,236.5382) scale(0.6447,0.6447)" font-size="40" xml:space="preserve" fill="#000000" fill-rule="nonzero" stroke="none" stroke-width="1" stroke-linecap="butt" stroke-linejoin="miter" stroke-miterlimit="10" stroke-dasharray="" stroke-dashoffset="0" font-family="Sans Serif" font-weight="normal" text-anchor="start" style="mix-blend-mode: normal"><tspan x="0" dy="0">buy</tspan></text><path d="M240,211.5c-18.22539,0 -33,-14.10303 -33,-31.5c0,-17.39697 14.77461,-31.5 33,-31.5c18.22539,0 33,14.10303 33,31.5c0,17.39697 -14.77461,31.5 -33,31.5z" fill="#7b7b7b" stroke="#000000" stroke-width="2" stroke-linecap="butt"/><path d="M235.05755,168.99477c0,3.49395 -3.06845,6.32636 -6.85356,6.32636c-3.78512,0 -6.85356,-2.83241 -6.85356,-6.32636c0,-3.49395 3.06844,-6.32636 6.85355,-6.32636c3.78511,0 6.85355,2.83241 6.85355,6.32636z" fill="#7b7b7b" stroke="#000000" stroke-width="2" stroke-linecap="butt"/><path d="M251.07113,176.50732c-4.18546,0 -7.57845,-3.09794 -7.57845,-6.91945c0,-3.8215 3.39299,-6.91945 7.57845,-6.91945c4.18546,0 7.57845,3.09794 7.57845,6.91945c0,3.8215 -3.39299,6.91945 -7.57845,6.91945z" fill="#7b7b7b" stroke="#000000" stroke-width="2" stroke-linecap="butt"/><path d="M223.59101,199.17678v-8.43515h32.159v8.43515z" fill="#7b7b7b" stroke="#000000" stroke-width="2" stroke-linecap="butt"/><text transform="translate(221.80585,133.92038) scale(0.5,0.5)" font-size="40" xml:space="preserve" fill="#000000" fill-rule="nonzero" stroke="none" stroke-width="1" stroke-linecap="butt" stroke-linejoin="miter" stroke-miterlimit="10" stroke-dasharray="" stroke-dashoffset="0" font-family="Sans Serif" font-weight="normal" text-anchor="start" style="mix-blend-mode: normal"><tspan x="0" dy="0">rare</tspan></text></g></g></svg>