<svg version="1.1" xmlns="http://www.w3.org/2000/svg" xmlns:xlink="http://www.w3.org/1999/xlink" width="111.53749" height="85.49308" viewBox="0,0,111.53749,85.49308"><g transform="translate(-57.08412,-173.69311)"><g data-paper-data="{&quot;isPaintingLayer&quot;:true}" fill-rule="nonzero" stroke-linejoin="miter" stroke-miterlimit="10" stroke-dasharray="" stroke-dashoffset="0" style="mix-blend-mode: normal"><path d="M144.86298,175.13703l-1.2887,35.03595l0.16108,47.44103l-85.37657,-1.00581l1.61088,-81.47117l68.62343,0.50291z" fill="#ff0000" stroke="#000000" stroke-width="2.5" stroke-linecap="round"/><path d="M67.94979,247.9226v-61h66v61z" fill="#ffffff" stroke="#000000" stroke-width="2.5" stroke-linecap="butt"/><path d="M102.5,243.50001c-15.18783,0 -27.5,-11.75253 -27.5,-26.25c0,-14.49747 12.31217,-26.25 27.5,-26.25c15.18783,0 27.5,11.75253 27.5,26.25c0,14.49747 -12.31217,26.25 -27.5,26.25z" fill="#ffffff" stroke="#ffffff" stroke-width="2" stroke-linecap="butt"/><path d="M92.5,215.50001l-11,-14" fill="none" stroke="#ffffff" stroke-width="2" stroke-linecap="round"/><path d="M108.5,215.50001l16,-13" fill="none" stroke="#ffffff" stroke-width="2" stroke-linecap="round"/><path d="M82,212.50001c0,-1.38071 1.11929,-2.5 2.5,-2.5c1.38071,0 2.5,1.11929 2.5,2.5c0,1.38071 -1.11929,2.5 -2.5,2.5c-1.38071,0 -2.5,-1.11929 -2.5,-2.5z" fill="#ffffff" stroke="none" stroke-width="0.5" stroke-linecap="butt"/><path d="M116,213.50001c0,-1.38071 1.11929,-2.5 2.5,-2.5c1.38071,0 2.5,1.11929 2.5,2.5c0,1.38071 -1.11929,2.5 -2.5,2.5c-1.38071,0 -2.5,-1.11929 -2.5,-2.5z" fill="#ffffff" stroke="none" stroke-width="0.5" stroke-linecap="butt"/><path d="M115.5,228.50001l-14,6l-13,-5" fill="none" stroke="#ffffff" stroke-width="2" stroke-linecap="round"/><path d="M117.80021,192.37343l10.95398,-17.07532l35.9226,17.2364l-17.39749,3.38285l4.83264,15.9477l-34.15063,-18.5251" fill="#ffffff" stroke="#000000" stroke-width="2.5" stroke-linecap="round"/><text transform="translate(122.73777,186.73117) rotate(24.6182) scale(0.1943,0.1943)" font-size="40" xml:space="preserve" fill="#ff0000" fill-rule="nonzero" stroke="none" stroke-width="1" stroke-linecap="butt" stroke-linejoin="miter" stroke-miterlimit="10" stroke-dasharray="" stroke-dashoffset="0" font-family="Sans Serif" font-weight="normal" text-anchor="start" style="mix-blend-mode: normal"><tspan x="0" dy="0">BOOM</tspan></text><path d="M125.53242,176.909l-9.82636,8.05439l-6.28242,-8.0544l-9.98745,8.69875l-5.47698,-8.85983l-9.66527,8.69875l-4.34938,-8.53766l-12.88703,9.18201l-6.92677,-9.3431" fill="none" stroke="#000000" stroke-width="2.5" stroke-linecap="round"/><path d="M58.84205,255.84205l8.69875,-8.37657l0.16109,1.44979" fill="none" stroke="#000000" stroke-width="2.5" stroke-linecap="round"/><path d="M67.86297,247.94875l3.70502,6.76569l8.21549,-6.44352l4.99372,8.21548l6.44351,-7.41004l4.51046,6.92678l7.57113,-6.92678l4.18828,6.76569l9.98745,-6.28242l4.02719,6.92677l11.43724,-7.8933l9.98745,9.3431" fill="none" stroke="#000000" stroke-width="2.5" stroke-linecap="round"/><path d="M63.03034,250.04289l0.64435,-66.69038" fill="none" stroke="#000000" stroke-width="2.5" stroke-linecap="round"/><path d="M138.25837,204.93829l0.64435,47.19875" fill="none" stroke="#000000" stroke-width="2.5" stroke-linecap="round"/><path d="M110.24803,201.58077c1.5729,5.72812 -4.69043,9.38437 -6.24897,14.56533c-0.71259,2.3688 3.59691,6.29838 0.24401,7.97484c-4.88144,2.44072 -5.54863,-7.30194 -4.96498,-9.63653c0.8116,-3.24642 6.95973,-10.58355 5.8195,-12.22115c-0.45092,-0.6476 -1.47636,-0.67992 -2.15373,-0.77181c-4.26852,-0.57901 -4.48884,2.43078 -6.73585,5.07192c-0.42535,0.49995 -1.87196,2.13718 -2.759,1.54582c-1.30056,-0.08829 -2.32816,-1.17123 -2.32816,-2.49419c0,-0.68222 0.27326,-1.3006 0.7163,-1.75169c3.61783,-6.94185 15.65603,-12.31503 18.41089,-2.28253z" fill="#000000" stroke="none" stroke-width="0.5" stroke-linecap="butt"/><path d="M101.1083,231.22796c0,-1.38071 1.11929,-2.5 2.5,-2.5c1.38071,0 2.5,1.11929 2.5,2.5c0,1.38071 -1.11929,2.5 -2.5,2.5c-1.38071,0 -2.5,-1.11929 -2.5,-2.5z" fill="#000000" stroke="none" stroke-width="0.5" stroke-linecap="butt"/></g></g></svg>