<svg version="1.1" xmlns="http://www.w3.org/2000/svg" xmlns:xlink="http://www.w3.org/1999/xlink" width="85.52" height="79.5" viewBox="0,0,85.52,79.5"><g transform="translate(-57.25,-180.25)"><g data-paper-data="{&quot;isPaintingLayer&quot;:true}" fill-rule="nonzero" stroke-linejoin="miter" stroke-miterlimit="10" stroke-dasharray="" stroke-dashoffset="0" style="mix-blend-mode: normal"><path d="M61.5,255.5v-71h76v71z" fill="#ffffff" stroke="#17ff00" stroke-width="7.5" stroke-linecap="butt"/><path d="M82,212.5c0,-1.38071 1.11929,-2.5 2.5,-2.5c1.38071,0 2.5,1.11929 2.5,2.5c0,1.38071 -1.11929,2.5 -2.5,2.5c-1.38071,0 -2.5,-1.11929 -2.5,-2.5z" fill="#ffffff" stroke="none" stroke-width="0.5" stroke-linecap="butt"/><path d="M116,213.5c0,-1.38071 1.11929,-2.5 2.5,-2.5c1.38071,0 2.5,1.11929 2.5,2.5c0,1.38071 -1.11929,2.5 -2.5,2.5c-1.38071,0 -2.5,-1.11929 -2.5,-2.5z" fill="#ffffff" stroke="none" stroke-width="0.5" stroke-linecap="butt"/><path d="M63.5,258.5l-5,-9v-59l10,-9h61l12,10l-2,59l-10,8z" fill="none" stroke="#000000" stroke-width="2.5" stroke-linecap="round"/><path d="M66.5,250.5v-61h66v61z" fill="none" stroke="#000000" stroke-width="2.5" stroke-linecap="butt"/><path d="M107.52572,203.64255c1.5729,5.72811 -4.69042,9.38437 -6.24898,14.56533c-0.71259,2.3688 3.59692,6.29839 0.24401,7.97484c-4.88143,2.44072 -5.54863,-7.30195 -4.96498,-9.63653c0.81161,-3.24642 6.95973,-10.58355 5.81951,-12.22115c-0.45091,-0.64761 -1.47637,-0.67992 -2.15373,-0.77181c-4.26852,-0.57901 -4.48883,2.43078 -6.73585,5.07192c-0.42535,0.49996 -1.87196,2.13718 -2.759,1.54581c-1.30056,-0.08829 -2.32816,-1.17123 -2.32816,-2.49419c0,-0.68221 0.27326,-1.3006 0.7163,-1.75169c3.61783,-6.94185 15.65603,-12.31504 18.41089,-2.28254z" fill="#000000" stroke="none" stroke-width="0.5" stroke-linecap="butt"/><path d="M98.38598,233.28975c0,-1.38071 1.11929,-2.5 2.5,-2.5c1.38071,0 2.5,1.11929 2.5,2.5c0,1.38071 -1.11929,2.5 -2.5,2.5c-1.38071,0 -2.5,-1.11929 -2.5,-2.5z" fill="#000000" stroke="none" stroke-width="0.5" stroke-linecap="butt"/></g></g></svg>