<svg version="1.1" xmlns="http://www.w3.org/2000/svg" xmlns:xlink="http://www.w3.org/1999/xlink" width="88.42037" height="131.28427" viewBox="0,0,88.42037,131.28427"><g transform="translate(-192.69807,-113.98076)"><g data-paper-data="{&quot;isPaintingLayer&quot;:true}" fill-rule="nonzero" stroke-linejoin="miter" stroke-miterlimit="10" stroke-dasharray="" stroke-dashoffset="0" style="mix-blend-mode: normal"><path d="M195.23978,218.2113v-74.73013h84.87866v74.73013z" fill="#808080" stroke="#000000" stroke-width="2" stroke-linecap="butt"/><path d="M279.65056,219.29866l-0.87197,24.19723l-85.0173,0.65398l1.52595,-25.0692z" fill="#808080" stroke="#000000" stroke-width="2" stroke-linecap="round"/><text transform="translate(214.12992,238.00928) scale(0.58046,0.58046)" font-size="40" xml:space="preserve" fill="#000000" fill-rule="nonzero" stroke="none" stroke-width="1" stroke-linecap="butt" stroke-linejoin="miter" stroke-miterlimit="10" stroke-dasharray="" stroke-dashoffset="0" font-family="Sans Serif" font-weight="normal" text-anchor="start" style="mix-blend-mode: normal"><tspan x="0" dy="0">buy</tspan></text><path d="M237.05238,219.50473c-18.22539,0 -33,-14.10303 -33,-31.5c0,-17.39697 14.77461,-31.5 33,-31.5c18.22539,0 33,14.10303 33,31.5c0,17.39697 -14.77461,31.5 -33,31.5z" fill="#808080" stroke="#000000" stroke-width="2" stroke-linecap="butt"/><path d="M255.18625,162.15152l20.76137,-17.00284l-8.94887,28.63636z" fill="#808080" stroke="#000000" stroke-width="2" stroke-linecap="round"/><path d="M207.04136,172.71117l-1.43182,-32.21591l12.88637,21.65625l-10.02273,8.23296" fill="#808080" stroke="#000000" stroke-width="2" stroke-linecap="round"/><path d="M219.74876,166.44696l4.47443,-2.50568l7.51704,8.94887l-6.62216,3.22159l-6.80114,-9.48579" fill="none" stroke="#000000" stroke-width="2" stroke-linecap="round"/><path d="M243.37376,173.78503l9.66477,-5.54829l4.6534,4.83239l-10.38068,6.62216z" fill="none" stroke="#000000" stroke-width="2" stroke-linecap="round"/><path d="M221.18057,195.79925l32.57386,4.47443" fill="none" stroke="#000000" stroke-width="2" stroke-linecap="round"/><text transform="translate(215.50706,135.73076) scale(0.5,0.5)" font-size="40" xml:space="preserve" fill="#000000" fill-rule="nonzero" stroke="none" stroke-width="1" stroke-linecap="butt" stroke-linejoin="miter" stroke-miterlimit="10" stroke-dasharray="" stroke-dashoffset="0" font-family="Sans Serif" font-weight="normal" text-anchor="start" style="mix-blend-mode: normal"><tspan x="0" dy="0">epic</tspan></text></g></g></svg>