<svg version="1.1" xmlns="http://www.w3.org/2000/svg" xmlns:xlink="http://www.w3.org/1999/xlink" width="68" height="65" viewBox="0,0,68,65"><defs><radialGradient cx="239.8023" cy="182.30649" r="33" gradientUnits="userSpaceOnUse" id="color-1"><stop offset="0" stop-color="#ffffff"/><stop offset="1" stop-color="#000000"/></radialGradient><radialGradient cx="228.73117" cy="169.91736" r="6.85356" gradientUnits="userSpaceOnUse" id="color-2"><stop offset="0" stop-color="#ffffff"/><stop offset="1" stop-color="#000000"/></radialGradient><radialGradient cx="250.74163" cy="170.18096" r="7.57845" gradientUnits="userSpaceOnUse" id="color-3"><stop offset="0" stop-color="#ffffff"/><stop offset="1" stop-color="#000000"/></radialGradient><radialGradient cx="240.1977" cy="194.16841" r="16.0795" gradientUnits="userSpaceOnUse" id="color-4"><stop offset="0" stop-color="#ffffff"/><stop offset="1" stop-color="#000000"/></radialGradient></defs><g transform="translate(-206,-147.5)"><g data-paper-data="{&quot;isPaintingLayer&quot;:true}" fill-rule="nonzero" stroke="#000000" stroke-width="2" stroke-linecap="butt" stroke-linejoin="miter" stroke-miterlimit="10" stroke-dasharray="" stroke-dashoffset="0" style="mix-blend-mode: normal"><path d="M240,211.5c-18.22539,0 -33,-14.10303 -33,-31.5c0,-17.39697 14.77461,-31.5 33,-31.5c18.22539,0 33,14.10303 33,31.5c0,17.39697 -14.77461,31.5 -33,31.5z" fill="url(#color-1)"/><path d="M235.05755,168.99477c0,3.49395 -3.06845,6.32636 -6.85356,6.32636c-3.78512,0 -6.85356,-2.83241 -6.85356,-6.32636c0,-3.49395 3.06844,-6.32636 6.85355,-6.32636c3.78511,0 6.85355,2.83241 6.85355,6.32636z" fill="url(#color-2)"/><path d="M251.07113,176.50732c-4.18546,0 -7.57845,-3.09794 -7.57845,-6.91945c0,-3.8215 3.39299,-6.91945 7.57845,-6.91945c4.18546,0 7.57845,3.09794 7.57845,6.91945c0,3.8215 -3.39299,6.91945 -7.57845,6.91945z" fill="url(#color-3)"/><path d="M223.59101,199.17678v-8.43515h32.159v8.43515z" fill="url(#color-4)"/></g></g></svg>