<svg version="1.1" xmlns="http://www.w3.org/2000/svg" xmlns:xlink="http://www.w3.org/1999/xlink" width="98.22656" height="94.03387" viewBox="0,0,98.22656,94.03387"><g transform="translate(-53.69753,-166.44103)"><g data-paper-data="{&quot;isPaintingLayer&quot;:true}" fill-rule="nonzero" stroke-linejoin="miter" stroke-miterlimit="10" stroke-dasharray="" stroke-dashoffset="0" style="mix-blend-mode: normal"><path d="M55.78138,259.2249v-83.12134h91.01464v83.12134z" fill="#ffea00" stroke="#000000" stroke-width="2.5" stroke-linecap="butt"/><path d="M67.94979,247.9226v-61h66v61z" fill="#ffffff" stroke="#000000" stroke-width="2.5" stroke-linecap="butt"/><path d="M102.5,243.50001c-15.18783,0 -27.5,-11.75253 -27.5,-26.25c0,-14.49747 12.31217,-26.25 27.5,-26.25c15.18783,0 27.5,11.75253 27.5,26.25c0,14.49747 -12.31217,26.25 -27.5,26.25z" fill="#ffffff" stroke="#ffffff" stroke-width="2" stroke-linecap="butt"/><path d="M81.5,201.50001l11,14" fill="none" stroke="#ffffff" stroke-width="2" stroke-linecap="round"/><path d="M108.5,215.50001l16,-13" fill="none" stroke="#ffffff" stroke-width="2" stroke-linecap="round"/><path d="M82,212.50001c0,-1.38071 1.11929,-2.5 2.5,-2.5c1.38071,0 2.5,1.11929 2.5,2.5c0,1.38071 -1.11929,2.5 -2.5,2.5c-1.38071,0 -2.5,-1.11929 -2.5,-2.5z" fill="#ffffff" stroke="none" stroke-width="0.5" stroke-linecap="butt"/><path d="M116,213.50001c0,-1.38071 1.11929,-2.5 2.5,-2.5c1.38071,0 2.5,1.11929 2.5,2.5c0,1.38071 -1.11929,2.5 -2.5,2.5c-1.38071,0 -2.5,-1.11929 -2.5,-2.5z" fill="#ffffff" stroke="none" stroke-width="0.5" stroke-linecap="butt"/><path d="M115.5,228.50001l-14,6l-13,-5" fill="none" stroke="#ffffff" stroke-width="2" stroke-linecap="round"/><text transform="translate(53.94753,188.19103) scale(0.5,0.5)" font-size="40" xml:space="preserve" fill="#e100ff" fill-rule="nonzero" stroke="none" stroke-width="1" stroke-linecap="butt" stroke-linejoin="miter" stroke-miterlimit="10" stroke-dasharray="" stroke-dashoffset="0" font-family="Sans Serif" font-weight="normal" text-anchor="start" style="mix-blend-mode: normal"><tspan x="0" dy="0">BIRTHDAY</tspan></text><path d="M61.07716,257.82374l0.23766,-64.16666" fill="none" stroke="#e100ff" stroke-width="1.5" stroke-linecap="round"/><path d="M65.83025,193.18177l-8.79321,-0.23765" fill="none" stroke="#e100ff" stroke-width="1.5" stroke-linecap="round"/><path d="M134.98765,193.65708h9.98148" fill="none" stroke="#e100ff" stroke-width="1.5" stroke-linecap="round"/><path d="M57.03704,252.83301l87.9321,-0.23765" fill="none" stroke="#e100ff" stroke-width="1.5" stroke-linecap="round"/><path d="M140.21604,194.13239l0.23765,63.4537l-3.80247,-4.27778l-4.51543,5.46605l-2.85185,-5.2284l-6.65432,4.75309l-3.56481,-4.75309l-4.27778,4.27778l-3.32716,-4.51543l-5.7037,4.99074l-4.99074,-4.51543l-7.12963,4.27778l-3.32716,-4.27778l-4.75309,4.75309l-3.56481,-4.99074l-5.46605,5.2284l-4.51543,-4.99074l-5.7037,4.04012" fill="none" stroke="#e100ff" stroke-width="1.5" stroke-linecap="round"/><path d="M108.86813,202.01741c1.5729,5.72812 -4.69043,9.38437 -6.24898,14.56533c-0.71259,2.3688 3.59692,6.29838 0.24401,7.97484c-4.88143,2.44072 -5.54862,-7.30194 -4.96498,-9.63653c0.8116,-3.24642 6.95973,-10.58355 5.81951,-12.22115c-0.45092,-0.6476 -1.47636,-0.67992 -2.15373,-0.77181c-4.26852,-0.57901 -4.48884,2.43078 -6.73586,5.07192c-0.42535,0.49995 -1.87196,2.13718 -2.759,1.54582c-1.30056,-0.08829 -2.32816,-1.17123 -2.32816,-2.49419c0,-0.68222 0.27326,-1.3006 0.7163,-1.75169c3.61783,-6.94185 15.65603,-12.31503 18.41089,-2.28253z" fill="#000000" stroke="none" stroke-width="0.5" stroke-linecap="butt"/><path d="M99.72839,231.66461c0,-1.38071 1.11929,-2.5 2.5,-2.5c1.38071,0 2.5,1.11929 2.5,2.5c0,1.38071 -1.11929,2.5 -2.5,2.5c-1.38071,0 -2.5,-1.11929 -2.5,-2.5z" fill="#000000" stroke="none" stroke-width="0.5" stroke-linecap="butt"/></g></g></svg>