<svg version="1.1" xmlns="http://www.w3.org/2000/svg" xmlns:xlink="http://www.w3.org/1999/xlink" width="324.5" height="223.5" viewBox="0,0,324.5,223.5"><g transform="translate(136.5,-5.5)"><g data-paper-data="{&quot;isPaintingLayer&quot;:true}" fill-rule="nonzero" stroke="#000000" stroke-linejoin="miter" stroke-miterlimit="10" stroke-dasharray="" stroke-dashoffset="0" style="mix-blend-mode: normal"><ellipse cx="-273" cy="11" transform="scale(0.5,0.5)" rx="0" ry="0" fill="#001aff" stroke-width="none" stroke-linecap="butt"/><path d="M185.5,176.5c0,-27.61424 -21.93805,-50 -49,-50c-27.06195,0 -49,22.38576 -49,50c0,27.61424 21.93805,50 49,50c27.06195,0 49,-22.38576 49,-50z" fill="#001aff" stroke-width="5" stroke-linecap="butt"/><path d="M136,205.5c-18.22539,0 -33,-14.10303 -33,-31.5c0,-17.39697 14.77461,-31.5 33,-31.5c18.22539,0 33,14.10303 33,31.5c0,17.39697 -14.77461,31.5 -33,31.5z" fill="#001aff" stroke-width="2" stroke-linecap="butt"/><path d="M114.5,160.5l11,14" fill="#001aff" stroke-width="2" stroke-linecap="round"/><path d="M141.5,174.5l16,-13" fill="#001aff" stroke-width="2" stroke-linecap="round"/><path d="M144.5,189.5l-13,5l-10,-4" fill="#001aff" stroke-width="2" stroke-linecap="round"/><path d="M115,171.5c0,-1.38071 1.11929,-2.5 2.5,-2.5c1.38071,0 2.5,1.11929 2.5,2.5c0,1.38071 -1.11929,2.5 -2.5,2.5c-1.38071,0 -2.5,-1.11929 -2.5,-2.5z" fill="#001aff" stroke-width="0.5" stroke-linecap="butt"/><path d="M149,172.5c0,-1.38071 1.11929,-2.5 2.5,-2.5c1.38071,0 2.5,1.11929 2.5,2.5c0,1.38071 -1.11929,2.5 -2.5,2.5c-1.38071,0 -2.5,-1.11929 -2.5,-2.5z" fill="#001aff" stroke-width="0.5" stroke-linecap="butt"/></g></g></svg>