<svg version="1.1" xmlns="http://www.w3.org/2000/svg" xmlns:xlink="http://www.w3.org/1999/xlink" width="88.42037" height="133.69172" viewBox="0,0,88.42037,133.69172"><g transform="translate(-195.64958,-112.17038)"><g data-paper-data="{&quot;isPaintingLayer&quot;:true}" fill-rule="nonzero" stroke-linejoin="miter" stroke-miterlimit="10" stroke-dasharray="" stroke-dashoffset="0" style="mix-blend-mode: normal"><path d="M198.19129,215.47319v-74.73013h84.87866v74.73013z" fill="#ff0000" stroke="#000000" stroke-width="2" stroke-linecap="butt"/><path d="M282.60207,216.56055l-0.87197,24.19723l-85.0173,0.65398l1.52595,-25.0692z" fill="#ff0000" stroke="#000000" stroke-width="2" stroke-linecap="round"/><text transform="translate(210.61772,237.80335) scale(0.6447,0.6447)" font-size="40" xml:space="preserve" fill="#000000" fill-rule="nonzero" stroke="none" stroke-width="1" stroke-linecap="butt" stroke-linejoin="miter" stroke-miterlimit="10" stroke-dasharray="" stroke-dashoffset="0" font-family="Sans Serif" font-weight="normal" text-anchor="start" style="mix-blend-mode: normal"><tspan x="0" dy="0">used</tspan></text><text transform="translate(221.80585,133.92038) scale(0.5,0.5)" font-size="40" xml:space="preserve" fill="#000000" fill-rule="nonzero" stroke="none" stroke-width="1" stroke-linecap="butt" stroke-linejoin="miter" stroke-miterlimit="10" stroke-dasharray="" stroke-dashoffset="0" font-family="Sans Serif" font-weight="normal" text-anchor="start" style="mix-blend-mode: normal"><tspan x="0" dy="0">epic</tspan></text><path d="M240,210.49833c-17.98243,0 -32.56008,-13.65456 -32.56008,-30.49833c0,-16.84377 14.57763,-30.49833 32.56008,-30.49833c17.98243,0 32.56008,13.65456 32.56008,30.49833c0,16.84377 -14.57763,30.49833 -32.56008,30.49833z" fill="#10ff00" stroke="#000000" stroke-width="3" stroke-linecap="butt"/><path d="M255.67706,190.58105l-12.05929,6.22415l-15.67708,-7.46899" fill="none" stroke="#bdff00" stroke-width="3" stroke-linecap="round"/><path d="M225.52885,203.02934l29.19739,-48.97627l9.73245,5.02321z" fill="#185b00" stroke="#000000" stroke-width="3" stroke-linecap="round"/><path d="M248.44148,173.15343l12.05929,-9.95863v17.42762z" fill="none" stroke="#bdff00" stroke-width="3" stroke-linecap="round"/><path d="M217.08733,159.07628l9.73245,-5.02321l29.19739,48.97627z" data-paper-data="{&quot;index&quot;:null}" fill="#185b00" stroke="#000000" stroke-width="3" stroke-linecap="round"/><path d="M223.11698,163.19478l14.47115,11.20347l-14.47115,3.73448z" fill="none" stroke="#bdff00" stroke-width="3" stroke-linecap="round"/></g></g></svg>