<svg version="1.1" xmlns="http://www.w3.org/2000/svg" xmlns:xlink="http://www.w3.org/1999/xlink" width="74.84614" height="83.9409" viewBox="0,0,74.84614,83.9409"><defs><linearGradient x1="240" y1="148.5" x2="240" y2="211.5" gradientUnits="userSpaceOnUse" id="color-1"><stop offset="0" stop-color="#ff0000"/><stop offset="1" stop-color="#000000"/></linearGradient><linearGradient x1="268.51455" y1="137.14395" x2="268.51455" y2="165.78031" gradientUnits="userSpaceOnUse" id="color-2"><stop offset="0" stop-color="#ff0000"/><stop offset="1" stop-color="#000000"/></linearGradient><linearGradient x1="215.00035" y1="132.49053" x2="215.00035" y2="164.70644" gradientUnits="userSpaceOnUse" id="color-3"><stop offset="0" stop-color="#ff0000"/><stop offset="1" stop-color="#000000"/></linearGradient><linearGradient x1="227.9762" y1="155.93655" x2="227.9762" y2="168.10701" gradientUnits="userSpaceOnUse" id="color-4"><stop offset="0" stop-color="#ffffff"/><stop offset="1" stop-color="#000000"/></linearGradient><linearGradient x1="253.48046" y1="160.23201" x2="253.48046" y2="171.68656" gradientUnits="userSpaceOnUse" id="color-5"><stop offset="0" stop-color="#ffffff"/><stop offset="1" stop-color="#000000"/></linearGradient></defs><g transform="translate(-206,-128.5591)"><g data-paper-data="{&quot;isPaintingLayer&quot;:true}" fill-rule="nonzero" stroke="#000000" stroke-width="2" stroke-linejoin="miter" stroke-miterlimit="10" stroke-dasharray="" stroke-dashoffset="0" style="mix-blend-mode: normal"><path d="M240,211.5c-18.22539,0 -33,-14.10303 -33,-31.5c0,-17.39697 14.77461,-31.5 33,-31.5c18.22539,0 33,14.10303 33,31.5c0,17.39697 -14.77461,31.5 -33,31.5z" fill="url(#color-1)" stroke-linecap="butt"/><path d="M258.13387,154.14679l20.76137,-17.00284l-8.94887,28.63636z" fill="url(#color-2)" stroke-linecap="round"/><path d="M209.98898,164.70644l-1.43182,-32.21591l12.88637,21.65625l-10.02273,8.23296" fill="url(#color-3)" stroke-linecap="round"/><path d="M222.69638,158.44223l4.47443,-2.50568l7.51704,8.94887l-6.62216,3.22159l-6.80114,-9.48579" fill="url(#color-4)" stroke-linecap="round"/><path d="M246.32138,165.7803l9.66477,-5.54829l4.6534,4.83239l-10.38068,6.62216z" fill="url(#color-5)" stroke-linecap="round"/><path d="M224.12819,187.79451l32.57386,4.47443" fill="none" stroke-linecap="round"/></g></g></svg>