<svg version="1.1" xmlns="http://www.w3.org/2000/svg" xmlns:xlink="http://www.w3.org/1999/xlink" width="85.52" height="79.5" viewBox="0,0,85.52,79.5"><g transform="translate(-57.25,-180.25)"><g data-paper-data="{&quot;isPaintingLayer&quot;:true}" fill-rule="nonzero" stroke-linejoin="miter" stroke-miterlimit="10" stroke-dasharray="" stroke-dashoffset="0" style="mix-blend-mode: normal"><path d="M61.5,255.5v-71h76v71z" fill="#ffffff" stroke="#17ff00" stroke-width="7.5" stroke-linecap="butt"/><path d="M82,212.5c0,-1.38071 1.11929,-2.5 2.5,-2.5c1.38071,0 2.5,1.11929 2.5,2.5c0,1.38071 -1.11929,2.5 -2.5,2.5c-1.38071,0 -2.5,-1.11929 -2.5,-2.5z" fill="#ffffff" stroke="none" stroke-width="0.5" stroke-linecap="butt"/><path d="M116,213.5c0,-1.38071 1.11929,-2.5 2.5,-2.5c1.38071,0 2.5,1.11929 2.5,2.5c0,1.38071 -1.11929,2.5 -2.5,2.5c-1.38071,0 -2.5,-1.11929 -2.5,-2.5z" fill="#ffffff" stroke="none" stroke-width="0.5" stroke-linecap="butt"/><path d="M63.5,258.5l-5,-9v-59l10,-9h61l12,10l-2,59l-10,8z" fill="none" stroke="#000000" stroke-width="2.5" stroke-linecap="round"/><path d="M66.5,250.5v-61h66v61z" fill="none" stroke="#000000" stroke-width="2.5" stroke-linecap="butt"/></g></g></svg>