<svg version="1.1" xmlns="http://www.w3.org/2000/svg" xmlns:xlink="http://www.w3.org/1999/xlink" width="107.5238" height="108.75" viewBox="0,0,107.5238,108.75"><g transform="translate(-168.375,-110.75)"><g data-paper-data="{&quot;isPaintingLayer&quot;:true}" fill-rule="nonzero" stroke="#000000" stroke-linejoin="miter" stroke-miterlimit="10" stroke-dasharray="" stroke-dashoffset="0" style="mix-blend-mode: normal"><path d="M240.87891,209.42056c-17.96024,0 -32.51989,-14.16614 -32.51989,-31.64097c0,-17.47483 14.55966,-31.64097 32.51989,-31.64097c17.96024,0 32.51989,14.16614 32.51989,31.64097c0,17.47483 -14.55966,31.64097 -32.51989,31.64097z" fill="#a77751" stroke-width="5" stroke-linecap="butt"/><path d="M240,198.13636c-10.4934,0 -19,-8.11993 -19,-18.13637c0,-10.01644 8.5066,-18.13636 19,-18.13636c10.4934,0 19,8.11992 19,18.13636c0,10.01644 -8.5066,18.13637 -19,18.13637z" fill="#a77751" stroke-width="2" stroke-linecap="butt"/><path d="M235.10606,177.98484l-6.33334,-8.0606" fill="none" stroke-width="2" stroke-linecap="round"/><path d="M244.31818,177.98485l9.21213,-7.48485" fill="none" stroke-width="2" stroke-linecap="round"/><path d="M246.04546,186.62121l-7.48485,2.87878l-5.75758,-2.30303" fill="none" stroke-width="2" stroke-linecap="round"/><path d="M229.06061,176.25757c0,-0.79495 0.64444,-1.43939 1.43939,-1.43939c0.79496,0 1.43939,0.64444 1.43939,1.43939c0,0.79495 -0.64444,1.4394 -1.43939,1.4394c-0.79496,0 -1.43939,-0.64444 -1.43939,-1.4394z" fill="#ffffff" stroke-width="0.5" stroke-linecap="butt"/><path d="M248.63637,176.83333c0,-0.79495 0.64444,-1.4394 1.43939,-1.4394c0.79496,0 1.43939,0.64444 1.43939,1.4394c0,0.79496 -0.64443,1.43939 -1.43939,1.43939c-0.79496,0 -1.43939,-0.64444 -1.43939,-1.43939z" fill="#ffffff" stroke-width="0.5" stroke-linecap="butt"/><path d="M248.375,217.5l-16.25,-1l19.25,2" fill="none" stroke-width="none" stroke-linecap="round"/><path d="M228.625,219.5l20,-0.5" fill="none" stroke-width="none" stroke-linecap="round"/><path d="M168.375,173v0" fill="none" stroke-width="none" stroke-linecap="round"/><path d="M229.875,137.5l21,0.75" fill="none" stroke-width="5" stroke-linecap="round"/><path d="M239.875,138.25l0.25,-22.5" fill="none" stroke-width="5" stroke-linecap="round"/><path d="M230.125,113.25l21.25,1" fill="none" stroke-width="5" stroke-linecap="round"/></g></g></svg>