<svg version="1.1" xmlns="http://www.w3.org/2000/svg" xmlns:xlink="http://www.w3.org/1999/xlink" width="91.59833" height="84.84845" viewBox="0,0,91.59833,84.84845"><g transform="translate(-55.08682,-174.66096)"><g data-paper-data="{&quot;isPaintingLayer&quot;:true}" fill-rule="nonzero" stroke-linejoin="miter" stroke-miterlimit="10" stroke-dasharray="" stroke-dashoffset="0" style="mix-blend-mode: normal"><path d="M56.33682,258.25941v-82.34845h89.09833v82.34845z" fill="#ffffff" stroke="#000000" stroke-width="2.5" stroke-linecap="butt"/><path d="M102.97873,252.28903c-20.50319,0 -37.1243,-15.86562 -37.1243,-35.43683c0,-19.57122 16.62112,-35.43683 37.1243,-35.43683c20.50319,0 37.1243,15.86562 37.1243,35.43683c0,19.57122 -16.62112,35.43683 -37.1243,35.43683z" fill="#001aff" stroke="#000000" stroke-width="2" stroke-linecap="butt"/><path d="M74.62926,195.59009l14.84972,18.89964" fill="none" stroke="#000000" stroke-width="2" stroke-linecap="round"/><path d="M111.07858,214.48974l21.59959,-17.54967" fill="none" stroke="#000000" stroke-width="2" stroke-linecap="round"/><path d="M75.30425,210.43982c0,-1.86392 1.51101,-3.37494 3.37494,-3.37494c1.86392,0 3.37494,1.51101 3.37494,3.37494c0,1.86392 -1.51101,3.37494 -3.37494,3.37494c-1.86392,0 -3.37494,-1.51101 -3.37494,-3.37494z" fill="#ffffff" stroke="none" stroke-width="0.5" stroke-linecap="butt"/><path d="M121.20339,211.78979c0,-1.86392 1.51101,-3.37494 3.37494,-3.37494c1.86392,0 3.37494,1.51101 3.37494,3.37494c0,1.86392 -1.51101,3.37494 -3.37494,3.37494c-1.86392,0 -3.37494,-1.51101 -3.37494,-3.37494z" fill="#ffffff" stroke="none" stroke-width="0.5" stroke-linecap="butt"/><path d="M120.5284,232.03941l-18.89964,8.09985l-17.54967,-6.74987" fill="none" stroke="#000000" stroke-width="2" stroke-linecap="round"/></g></g></svg>