<svg version="1.1" xmlns="http://www.w3.org/2000/svg" xmlns:xlink="http://www.w3.org/1999/xlink" width="98" height="93" viewBox="0,0,98,93"><g transform="translate(-174.5,-192.5)"><g data-paper-data="{&quot;isPaintingLayer&quot;:true}" fill-rule="nonzero" stroke="#000000" stroke-width="2" stroke-linejoin="miter" stroke-miterlimit="10" stroke-dasharray="" stroke-dashoffset="0" style="mix-blend-mode: normal"><path d="M223.5,284.5c-26.50967,0 -48,-20.37104 -48,-45.5c0,-25.12896 21.49033,-45.5 48,-45.5c26.50967,0 48,20.37104 48,45.5c0,25.12896 -21.49033,45.5 -48,45.5z" fill="#ff0000" stroke-linecap="butt"/><path d="M223,254.5c-20.15839,0 -36.5,-6.71573 -36.5,-15c0,-8.28427 16.34161,-15 36.5,-15c20.15839,0 36.5,6.71573 36.5,15c0,8.28427 -16.34161,15 -36.5,15z" fill="#ff0000" stroke-linecap="butt"/><path d="M217.60063,242.5l-8.10063,-16.20126l0.28931,-17.06918l11.86164,-12.72956l4.05031,10.99371l0.28931,19.09434z" fill="none" stroke-linecap="round"/></g></g></svg>