<svg version="1.1" xmlns="http://www.w3.org/2000/svg" xmlns:xlink="http://www.w3.org/1999/xlink" width="111.53748" height="85.49307" viewBox="0,0,111.53748,85.49307"><g transform="translate(-57.08412,-173.69312)"><g data-paper-data="{&quot;isPaintingLayer&quot;:true}" fill-rule="nonzero" stroke-linejoin="miter" stroke-miterlimit="10" stroke-dasharray="" stroke-dashoffset="0" style="mix-blend-mode: normal"><path d="M128.5931,175.63994l-68.62343,-0.50291l-1.61088,81.47117l85.37657,1.00581l-0.16108,-47.44103l1.2887,-35.03595z" fill="#ff0000" stroke="#000000" stroke-width="2.5" stroke-linecap="round"/><path d="M67.94979,247.9226v-61h66v61z" fill="#ffffff" stroke="#000000" stroke-width="2.5" stroke-linecap="butt"/><path d="M102.5,243.50001c-15.18783,0 -27.5,-11.75253 -27.5,-26.25c0,-14.49747 12.31217,-26.25 27.5,-26.25c15.18783,0 27.5,11.75253 27.5,26.25c0,14.49747 -12.31217,26.25 -27.5,26.25z" fill="#001aff" stroke="#000000" stroke-width="2" stroke-linecap="butt"/><path d="M81.5,201.50001l11,14" fill="none" stroke="#000000" stroke-width="2" stroke-linecap="round"/><path d="M108.5,215.50001l16,-13" fill="none" stroke="#000000" stroke-width="2" stroke-linecap="round"/><path d="M82,212.50001c0,-1.38071 1.11929,-2.5 2.5,-2.5c1.38071,0 2.5,1.11929 2.5,2.5c0,1.38071 -1.11929,2.5 -2.5,2.5c-1.38071,0 -2.5,-1.11929 -2.5,-2.5z" fill="#ffffff" stroke="none" stroke-width="0.5" stroke-linecap="butt"/><path d="M116,213.50001c0,-1.38071 1.11929,-2.5 2.5,-2.5c1.38071,0 2.5,1.11929 2.5,2.5c0,1.38071 -1.11929,2.5 -2.5,2.5c-1.38071,0 -2.5,-1.11929 -2.5,-2.5z" fill="#ffffff" stroke="none" stroke-width="0.5" stroke-linecap="butt"/><path d="M115.5,228.50001l-14,6l-13,-5" fill="none" stroke="#000000" stroke-width="2" stroke-linecap="round"/><path d="M117.80021,192.37343l10.95398,-17.07532l35.9226,17.2364l-17.39749,3.38285l4.83264,15.9477l-34.15063,-18.5251" fill="#ffffff" stroke="#000000" stroke-width="2.5" stroke-linecap="round"/><text transform="translate(122.73777,186.73117) rotate(24.6182) scale(0.1943,0.1943)" font-size="40" xml:space="preserve" fill="#ff0000" fill-rule="nonzero" stroke="none" stroke-width="1" stroke-linecap="butt" stroke-linejoin="miter" stroke-miterlimit="10" stroke-dasharray="" stroke-dashoffset="0" font-family="Sans Serif" font-weight="normal" text-anchor="start" style="mix-blend-mode: normal"><tspan x="0" dy="0">BOOM</tspan></text><path d="M60.13076,176.74791l6.92677,9.3431l12.88703,-9.18201l4.34938,8.53766l9.66527,-8.69875l5.47698,8.85983l9.98745,-8.69875l6.28242,8.0544l9.82636,-8.05439" fill="none" stroke="#000000" stroke-width="2.5" stroke-linecap="round"/><path d="M67.70189,248.91527l-0.16109,-1.44979l-8.69875,8.37657" fill="none" stroke="#000000" stroke-width="2.5" stroke-linecap="round"/><path d="M67.86297,247.94875l3.70502,6.76569l8.21549,-6.44352l4.99372,8.21548l6.44351,-7.41004l4.51046,6.92678l7.57113,-6.92678l4.18828,6.76569l9.98745,-6.28242l4.02719,6.92677l11.43724,-7.8933l9.98745,9.3431" fill="none" stroke="#000000" stroke-width="2.5" stroke-linecap="round"/><path d="M63.03034,250.04289l0.64435,-66.69038" fill="none" stroke="#000000" stroke-width="2.5" stroke-linecap="round"/><path d="M138.25837,204.93829l0.64435,47.19875" fill="none" stroke="#000000" stroke-width="2.5" stroke-linecap="round"/></g></g></svg>